EBGaramondVF-Display_Xbold.ufo
<glyph name="numbersign" format="1">
  <advance width="495"/>
  <unicode hex="0023"/>
  <outline>
    <contour>
      <point x="78" y="-80" type="curve" smooth="yes"/>
      <point x="85" y="-80"/>
      <point x="89" y="-78"/>
      <point x="92" y="-69" type="curve" smooth="yes"/>
      <point x="123" y="59" type="line"/>
      <point x="261" y="65" type="line"/>
      <point x="231" y="-57" type="line"/>
      <point x="230" y="-63" type="line" smooth="yes"/>
      <point x="230" y="-67"/>
      <point x="232" y="-69"/>
      <point x="235" y="-69" type="curve" smooth="yes"/>
      <point x="241" y="-69"/>
      <point x="247" y="-67"/>
      <point x="248" y="-59" type="curve" smooth="yes"/>
      <point x="280" y="67" type="line"/>
      <point x="349" y="70" type="line" smooth="yes"/>
      <point x="384" y="71"/>
      <point x="397" y="155"/>
      <point x="397" y="177" type="curve" smooth="yes"/>
      <point x="397" y="194"/>
      <point x="388" y="204"/>
      <point x="379" y="204" type="curve"/>
      <point x="312" y="201" type="line"/>
      <point x="337" y="302" type="line"/>
      <point x="402" y="305" type="line" smooth="yes"/>
      <point x="437" y="307"/>
      <point x="451" y="401"/>
      <point x="451" y="424" type="curve" smooth="yes"/>
      <point x="451" y="432"/>
      <point x="445" y="437"/>
      <point x="437" y="437" type="curve"/>
      <point x="370" y="434" type="line"/>
      <point x="399" y="556" type="line"/>
      <point x="400" y="559"/>
      <point x="400" y="560"/>
      <point x="400" y="562" type="curve" smooth="yes"/>
      <point x="400" y="566"/>
      <point x="399" y="569"/>
      <point x="396" y="569" type="curve" smooth="yes"/>
      <point x="389" y="569"/>
      <point x="384" y="568"/>
      <point x="382" y="557" type="curve" smooth="yes"/>
      <point x="351" y="432" type="line"/>
      <point x="214" y="426" type="line"/>
      <point x="241" y="542" type="line"/>
      <point x="242" y="545"/>
      <point x="243" y="549"/>
      <point x="243" y="551" type="curve" smooth="yes"/>
      <point x="243" y="555"/>
      <point x="242" y="558"/>
      <point x="237" y="558" type="curve" smooth="yes"/>
      <point x="232" y="558"/>
      <point x="227" y="555"/>
      <point x="224" y="546" type="curve" smooth="yes"/>
      <point x="195" y="424" type="line"/>
      <point x="115" y="421" type="line" smooth="yes"/>
      <point x="79" y="419"/>
      <point x="73" y="334"/>
      <point x="73" y="311" type="curve" smooth="yes"/>
      <point x="73" y="298"/>
      <point x="84" y="289"/>
      <point x="95" y="289" type="curve"/>
      <point x="162" y="292" type="line"/>
      <point x="137" y="191" type="line"/>
      <point x="59" y="188" type="line" smooth="yes"/>
      <point x="22" y="187"/>
      <point x="17" y="93"/>
      <point x="17" y="67" type="curve" smooth="yes"/>
      <point x="17" y="59"/>
      <point x="24" y="54"/>
      <point x="32" y="54" type="curve"/>
      <point x="105" y="57" type="line"/>
      <point x="75" y="-65" type="line"/>
      <point x="73" y="-74" type="line" smooth="yes"/>
      <point x="73" y="-78"/>
      <point x="75" y="-80"/>
    </contour>
    <contour>
      <point x="156" y="193" type="line"/>
      <point x="181" y="294" type="line"/>
      <point x="318" y="300" type="line"/>
      <point x="294" y="199" type="line"/>
    </contour>
  </outline>
</glyph>
<glyph name="dollar" format="1">
  <advance width="605"/>
  <unicode hex="0024"/>
  <outline>
    <contour>
      <point x="263" y="-82" type="curve" smooth="yes"/>
      <point x="268" y="-82"/>
      <point x="273" y="-78"/>
      <point x="274" y="-71" type="curve" smooth="yes"/>
      <point x="281" y="-4" type="line" smooth="yes"/>
      <point x="282" y="2"/>
      <point x="286" y="4"/>
      <point x="292" y="4" type="curve" smooth="yes"/>
      <point x="448" y="2"/>
      <point x="562" y="93"/>
      <point x="562" y="215" type="curve" smooth="yes"/>
      <point x="562" y="311"/>
      <point x="495" y="358"/>
      <point x="349" y="396" type="curve"/>
      <point x="335" y="401"/>
      <point x="336" y="403"/>
      <point x="337" y="409" type="curve" smooth="yes"/>
      <point x="356" y="562" type="line"/>
      <point x="357" y="568"/>
      <point x="360" y="570"/>
      <point x="364" y="570" type="curve" smooth="yes"/>
      <point x="451" y="576"/>
      <point x="492" y="526"/>
      <point x="519" y="462" type="curve" smooth="yes"/>
      <point x="521" y="457"/>
      <point x="530" y="449"/>
      <point x="541" y="449" type="curve" smooth="yes"/>
      <point x="548" y="449"/>
      <point x="553" y="453"/>
      <point x="553" y="460" type="curve" smooth="yes"/>
      <point x="553" y="487"/>
      <point x="542" y="521"/>
      <point x="534" y="545" type="curve" smooth="yes"/>
      <point x="531" y="554"/>
      <point x="518" y="563"/>
      <point x="505" y="566" type="curve" smooth="yes"/>
      <point x="478" y="573"/>
      <point x="433" y="587"/>
      <point x="365" y="586" type="curve" smooth="yes"/>
      <point x="362" y="585"/>
      <point x="360" y="589"/>
      <point x="360" y="594" type="curve" smooth="yes"/>
      <point x="361" y="612"/>
      <point x="365" y="643"/>
      <point x="365" y="648" type="curve"/>
      <point x="365" y="654"/>
      <point x="363" y="658"/>
      <point x="359" y="658" type="curve" smooth="yes"/>
      <point x="353" y="658"/>
      <point x="349" y="656"/>
      <point x="348" y="644" type="curve" smooth="yes"/>
      <point x="343" y="593" type="line" smooth="yes"/>
      <point x="343" y="588"/>
      <point x="342" y="585"/>
      <point x="339" y="585" type="curve" smooth="yes"/>
      <point x="127" y="583"/>
      <point x="62" y="498"/>
      <point x="62" y="402" type="curve" smooth="yes"/>
      <point x="62" y="300"/>
      <point x="163" y="247"/>
      <point x="283" y="222" type="curve" smooth="yes"/>
      <point x="292" y="218"/>
      <point x="293" y="215"/>
      <point x="292" y="210" type="curve" smooth="yes"/>
      <point x="269" y="26" type="line" smooth="yes"/>
      <point x="269" y="21"/>
      <point x="265" y="20"/>
      <point x="260" y="22" type="curve"/>
      <point x="177" y="29"/>
      <point x="102" y="55"/>
      <point x="66" y="161" type="curve" smooth="yes"/>
      <point x="63" y="166"/>
      <point x="60" y="172"/>
      <point x="54" y="172" type="curve" smooth="yes"/>
      <point x="46" y="172"/>
      <point x="40" y="166"/>
      <point x="40" y="158" type="curve"/>
      <point x="42" y="135"/>
      <point x="45" y="89"/>
      <point x="53" y="65" type="curve" smooth="yes"/>
      <point x="55" y="59"/>
      <point x="64" y="53"/>
      <point x="70" y="49" type="curve" smooth="yes"/>
      <point x="116" y="26"/>
      <point x="191" y="3"/>
      <point x="255" y="5" type="curve" smooth="yes"/>
      <point x="260" y="5"/>
      <point x="264" y="2"/>
      <point x="263" y="-4" type="curve"/>
      <point x="256" y="-70" type="line" smooth="yes"/>
      <point x="255" y="-75"/>
      <point x="259" y="-82"/>
    </contour>
    <contour>
      <point x="296" y="19" type="curve"/>
      <point x="289" y="19"/>
      <point x="287" y="21"/>
      <point x="287" y="28" type="curve"/>
      <point x="310" y="212" type="line" smooth="yes"/>
      <point x="311" y="217"/>
      <point x="313" y="220"/>
      <point x="318" y="219" type="curve"/>
      <point x="431" y="201"/>
      <point x="451" y="169"/>
      <point x="451" y="127" type="curve" smooth="yes"/>
      <point x="451" y="77"/>
      <point x="389" y="17"/>
    </contour>
    <contour>
      <point x="310" y="403" type="curve"/>
      <point x="222" y="422"/>
      <point x="188" y="452"/>
      <point x="188" y="485" type="curve" smooth="yes"/>
      <point x="188" y="527"/>
      <point x="233" y="571"/>
      <point x="333" y="570" type="curve"/>
      <point x="338" y="570"/>
      <point x="341" y="568"/>
      <point x="340" y="562" type="curve"/>
      <point x="320" y="407" type="line"/>
      <point x="319" y="404"/>
      <point x="317" y="401"/>
    </contour>
  </outline>
</glyph>
<glyph name="ampersand" format="1">
  <advance width="1015"/>
  <unicode hex="0026"/>
  <outline>
    <contour>
      <point x="264" y="-15" type="curve" smooth="yes"/>
      <point x="384" y="-15"/>
      <point x="450" y="36"/>
      <point x="532" y="104" type="curve"/>
      <point x="547" y="115" type="line"/>
      <point x="563" y="91" type="line" smooth="yes"/>
      <point x="608" y="28"/>
      <point x="647" y="-14"/>
      <point x="775" y="-14" type="curve" smooth="yes"/>
      <point x="861" y="-14"/>
      <point x="970" y="35"/>
      <point x="970" y="58" type="curve" smooth="yes"/>
      <point x="970" y="62"/>
      <point x="970" y="65"/>
      <point x="962" y="65" type="curve" smooth="yes"/>
      <point x="958" y="65"/>
      <point x="950" y="59"/>
      <point x="941" y="54" type="curve" smooth="yes"/>
      <point x="922" y="44"/>
      <point x="895" y="33"/>
      <point x="854" y="33" type="curve" smooth="yes"/>
      <point x="794" y="33"/>
      <point x="743" y="80"/>
      <point x="693" y="141" type="curve" smooth="yes"/>
      <point x="670" y="170" type="line"/>
      <point x="670" y="170"/>
      <point x="859" y="347"/>
      <point x="874" y="357" type="curve" smooth="yes"/>
      <point x="894" y="371"/>
      <point x="923" y="385"/>
      <point x="960" y="387" type="curve"/>
      <point x="978" y="388"/>
      <point x="995" y="396"/>
      <point x="995" y="403" type="curve" smooth="yes"/>
      <point x="995" y="406"/>
      <point x="986" y="411"/>
      <point x="978" y="411" type="curve" smooth="yes"/>
      <point x="944" y="411"/>
      <point x="885" y="402"/>
      <point x="842" y="402" type="curve" smooth="yes"/>
      <point x="821" y="402"/>
      <point x="751" y="405"/>
      <point x="742" y="405" type="curve" smooth="yes"/>
      <point x="737" y="405"/>
      <point x="711" y="404"/>
      <point x="711" y="396" type="curve" smooth="yes"/>
      <point x="711" y="391"/>
      <point x="724" y="388"/>
      <point x="740" y="385" type="curve"/>
      <point x="776" y="382"/>
      <point x="780" y="370"/>
      <point x="780" y="361" type="curve" smooth="yes"/>
      <point x="780" y="340"/>
      <point x="726" y="252"/>
      <point x="681" y="199" type="curve" smooth="yes"/>
      <point x="665" y="179" type="line"/>
      <point x="647" y="199" type="line" smooth="yes"/>
      <point x="600" y="252"/>
      <point x="564" y="292"/>
      <point x="512" y="346" type="curve" smooth="yes"/>
      <point x="499" y="360" type="line"/>
      <point x="513" y="365" type="line" smooth="yes"/>
      <point x="579" y="389"/>
      <point x="680" y="426"/>
      <point x="680" y="477" type="curve" smooth="yes"/>
      <point x="680" y="529"/>
      <point x="612" y="599"/>
      <point x="471" y="599" type="curve" smooth="yes"/>
      <point x="358" y="599"/>
      <point x="243" y="554"/>
      <point x="243" y="484" type="curve" smooth="yes"/>
      <point x="243" y="438"/>
      <point x="284" y="405"/>
      <point x="318" y="368" type="curve"/>
      <point x="338" y="346" type="line"/>
      <point x="309" y="337" type="line" smooth="yes"/>
      <point x="149" y="291"/>
      <point x="38" y="235"/>
      <point x="38" y="127" type="curve" smooth="yes"/>
      <point x="38" y="45"/>
      <point x="130" y="-15"/>
    </contour>
    <contour>
      <point x="362" y="49" type="curve" smooth="yes"/>
      <point x="285" y="49"/>
      <point x="226" y="91"/>
      <point x="226" y="160" type="curve" smooth="yes"/>
      <point x="226" y="219"/>
      <point x="234" y="293"/>
      <point x="327" y="329" type="curve" smooth="yes"/>
      <point x="348" y="337" type="line"/>
      <point x="363" y="321" type="line" smooth="yes"/>
      <point x="421" y="259"/>
      <point x="484" y="190"/>
      <point x="523" y="142" type="curve" smooth="yes"/>
      <point x="539" y="123" type="line"/>
      <point x="521" y="111" type="line" smooth="yes"/>
      <point x="472" y="72"/>
      <point x="422" y="49"/>
    </contour>
    <contour>
      <point x="488" y="368" type="line"/>
      <point x="472" y="387" type="line" smooth="yes"/>
      <point x="420" y="449"/>
      <point x="404" y="471"/>
      <point x="404" y="516" type="curve" smooth="yes"/>
      <point x="404" y="557"/>
      <point x="440" y="588"/>
      <point x="480" y="588" type="curve" smooth="yes"/>
      <point x="526" y="588"/>
      <point x="548" y="537"/>
      <point x="548" y="485" type="curve" smooth="yes"/>
      <point x="548" y="441"/>
      <point x="538" y="394"/>
      <point x="501" y="374" type="curve" smooth="yes"/>
    </contour>
  </outline>
</glyph>
<glyph name="quotesingle" format="1">
  <advance width="290"/>
  <unicode hex="0027"/>
  <outline>
    <contour>
      <point x="87" y="388" type="curve" smooth="yes"/>
      <point x="95" y="388"/>
      <point x="110" y="405"/>
      <point x="122" y="419" type="curve" smooth="yes"/>
      <point x="157" y="466"/>
      <point x="228" y="572"/>
      <point x="228" y="636" type="curve" smooth="yes"/>
      <point x="228" y="657"/>
      <point x="220" y="676"/>
      <point x="198" y="676" type="curve" smooth="yes"/>
      <point x="163" y="676"/>
      <point x="139" y="666"/>
      <point x="103" y="650" type="curve"/>
      <point x="86" y="641"/>
      <point x="62" y="624"/>
      <point x="62" y="607" type="curve" smooth="yes"/>
      <point x="62" y="580"/>
      <point x="76" y="521"/>
      <point x="76" y="487" type="curve" smooth="yes"/>
      <point x="76" y="465"/>
      <point x="77" y="438"/>
      <point x="75" y="416" type="curve"/>
      <point x="75" y="406"/>
      <point x="78" y="388"/>
    </contour>
  </outline>
</glyph>
<glyph name="comma" format="1">
  <advance width="279"/>
  <unicode hex="002C"/>
  <outline>
    <contour>
      <point x="55" y="-147" type="curve" smooth="yes"/>
      <point x="117" y="-147"/>
      <point x="230" y="-72"/>
      <point x="230" y="44" type="curve" smooth="yes"/>
      <point x="230" y="108"/>
      <point x="187" y="156"/>
      <point x="129" y="156" type="curve" smooth="yes"/>
      <point x="91" y="156"/>
      <point x="57" y="129"/>
      <point x="57" y="90" type="curve" smooth="yes"/>
      <point x="57" y="53"/>
      <point x="81" y="33"/>
      <point x="110" y="20" type="curve" smooth="yes"/>
      <point x="133" y="10"/>
      <point x="155" y="-3"/>
      <point x="155" y="-35" type="curve" smooth="yes"/>
      <point x="155" y="-77"/>
      <point x="101" y="-128"/>
      <point x="49" y="-132" type="curve" smooth="yes"/>
      <point x="39" y="-133"/>
      <point x="33" y="-136"/>
      <point x="33" y="-140" type="curve" smooth="yes"/>
      <point x="33" y="-143"/>
      <point x="40" y="-147"/>
    </contour>
  </outline>
</glyph>
<glyph name="hyphen" format="1">
  <advance width="274"/>
  <unicode hex="002D"/>
  <outline>
    <contour>
      <point x="35" y="214" type="curve"/>
      <point x="99" y="218"/>
      <point x="162" y="224"/>
      <point x="224" y="229" type="curve" smooth="yes"/>
      <point x="240" y="231"/>
      <point x="245" y="241"/>
      <point x="245" y="249" type="curve" smooth="yes"/>
      <point x="245" y="251"/>
      <point x="241" y="252"/>
      <point x="237" y="252" type="curve"/>
      <point x="173" y="246"/>
      <point x="109" y="241"/>
      <point x="45" y="235" type="curve"/>
      <point x="35" y="235"/>
      <point x="29" y="224"/>
      <point x="29" y="215" type="curve" smooth="yes"/>
      <point x="29" y="214"/>
      <point x="30" y="214"/>
    </contour>
  </outline>
</glyph>
<glyph name="one" format="1">
  <advance width="847"/>
  <unicode hex="0031"/>
  <outline>
    <contour>
      <point x="206" y="-3" type="curve" smooth="yes"/>
      <point x="290" y="-3"/>
      <point x="355" y="2"/>
      <point x="439" y="2" type="curve" smooth="yes"/>
      <point x="522" y="2"/>
      <point x="579" y="-3"/>
      <point x="668" y="-3" type="curve" smooth="yes"/>
      <point x="680" y="-3"/>
      <point x="690" y="0"/>
      <point x="690" y="3" type="curve" smooth="yes"/>
      <point x="690" y="6"/>
      <point x="682" y="9"/>
      <point x="673" y="10" type="curve" smooth="yes"/>
      <point x="591" y="20"/>
      <point x="567" y="21"/>
      <point x="567" y="80" type="curve" smooth="yes"/>
      <point x="567" y="510" type="line" smooth="yes"/>
      <point x="567" y="538"/>
      <point x="568" y="561"/>
      <point x="571" y="581" type="curve"/>
      <point x="572" y="586"/>
      <point x="565" y="590"/>
      <point x="559" y="590" type="curve" smooth="yes"/>
      <point x="554" y="590"/>
      <point x="541" y="587"/>
      <point x="519" y="566" type="curve" smooth="yes"/>
      <point x="466" y="534"/>
      <point x="381" y="520"/>
      <point x="248" y="517" type="curve" smooth="yes"/>
      <point x="220" y="517"/>
      <point x="198" y="515"/>
      <point x="198" y="509" type="curve" smooth="yes"/>
      <point x="198" y="502"/>
      <point x="211" y="500"/>
      <point x="224" y="500" type="curve" smooth="yes"/>
      <point x="289" y="499"/>
      <point x="308" y="492"/>
      <point x="308" y="445" type="curve" smooth="yes"/>
      <point x="308" y="85" type="line" smooth="yes"/>
      <point x="308" y="22"/>
      <point x="274" y="18"/>
      <point x="198" y="11" type="curve" smooth="yes"/>
      <point x="190" y="9"/>
      <point x="183" y="6"/>
      <point x="183" y="4" type="curve" smooth="yes"/>
      <point x="183" y="1"/>
      <point x="191" y="-3"/>
    </contour>
  </outline>
</glyph>
<glyph name="six" format="1">
  <advance width="847"/>
  <unicode hex="0036"/>
  <outline>
    <contour>
      <point x="426" y="-16" type="curve" smooth="yes"/>
      <point x="607" y="-16"/>
      <point x="809" y="59"/>
      <point x="809" y="176" type="curve" smooth="yes"/>
      <point x="809" y="262"/>
      <point x="708" y="325"/>
      <point x="594" y="325" type="curve" smooth="yes"/>
      <point x="542" y="325"/>
      <point x="467" y="308"/>
      <point x="415" y="275" type="curve" smooth="yes"/>
      <point x="399" y="267"/>
      <point x="387" y="258"/>
      <point x="376" y="248" type="curve" smooth="yes"/>
      <point x="367" y="240"/>
      <point x="370" y="229"/>
      <point x="385" y="237" type="curve" smooth="yes"/>
      <point x="406" y="249"/>
      <point x="438" y="261"/>
      <point x="462" y="261" type="curve" smooth="yes"/>
      <point x="515" y="261"/>
      <point x="553" y="202"/>
      <point x="553" y="129" type="curve" smooth="yes"/>
      <point x="553" y="40"/>
      <point x="503" y="-2"/>
      <point x="442" y="-1" type="curve" smooth="yes"/>
      <point x="383" y="0"/>
      <point x="309" y="58"/>
      <point x="307" y="165" type="curve" smooth="yes"/>
      <point x="305" y="279"/>
      <point x="355" y="398"/>
      <point x="431" y="476" type="curve" smooth="yes"/>
      <point x="476" y="523"/>
      <point x="537" y="553"/>
      <point x="604" y="581" type="curve" smooth="yes"/>
      <point x="611" y="584"/>
      <point x="622" y="586"/>
      <point x="627" y="593" type="curve" smooth="yes"/>
      <point x="629" y="595"/>
      <point x="621" y="600"/>
      <point x="609" y="597" type="curve" smooth="yes"/>
      <point x="511" y="578"/>
      <point x="431" y="561"/>
      <point x="348" y="527" type="curve" smooth="yes"/>
      <point x="156" y="430"/>
      <point x="43" y="306"/>
      <point x="43" y="178" type="curve" smooth="yes"/>
      <point x="43" y="48"/>
      <point x="234" y="-16"/>
    </contour>
  </outline>
</glyph>
<glyph name="seven" format="1">
  <advance width="847"/>
  <unicode hex="0037"/>
  <outline>
    <contour>
      <point x="327" y="-32" type="curve" smooth="yes"/>
      <point x="331" y="-32"/>
      <point x="337" y="-17"/>
      <point x="346" y="-7" type="curve" smooth="yes"/>
      <point x="758" y="495" type="line" smooth="yes"/>
      <point x="770" y="509"/>
      <point x="796" y="547"/>
      <point x="796" y="562" type="curve" smooth="yes"/>
      <point x="796" y="567"/>
      <point x="793" y="574"/>
      <point x="790" y="574" type="curve" smooth="yes"/>
      <point x="768" y="573"/>
      <point x="579" y="569"/>
      <point x="367" y="569" type="curve" smooth="yes"/>
      <point x="313" y="569"/>
      <point x="288" y="570"/>
      <point x="253" y="570" type="curve" smooth="yes"/>
      <point x="205" y="570"/>
      <point x="160" y="579"/>
      <point x="156" y="579" type="curve" smooth="yes"/>
      <point x="150" y="579"/>
      <point x="139" y="574"/>
      <point x="138" y="556" type="curve" smooth="yes"/>
      <point x="133" y="506"/>
      <point x="120" y="421"/>
      <point x="107" y="362" type="curve"/>
      <point x="105" y="353"/>
      <point x="100" y="333"/>
      <point x="100" y="318" type="curve" smooth="yes"/>
      <point x="100" y="307"/>
      <point x="102" y="290"/>
      <point x="110" y="290" type="curve" smooth="yes"/>
      <point x="112" y="290"/>
      <point x="113" y="301"/>
      <point x="117" y="313" type="curve" smooth="yes"/>
      <point x="127" y="349"/>
      <point x="148" y="358"/>
      <point x="171" y="358" type="curve" smooth="yes"/>
      <point x="618" y="358" type="line"/>
      <point x="610" y="383" type="line"/>
      <point x="347" y="30" type="line" smooth="yes"/>
      <point x="335" y="16"/>
      <point x="315" y="-19"/>
      <point x="315" y="-23" type="curve" smooth="yes"/>
      <point x="315" y="-28"/>
      <point x="318" y="-32"/>
    </contour>
  </outline>
</glyph>
<glyph name="eight" format="1">
  <advance width="847"/>
  <unicode hex="0038"/>
  <outline>
    <contour>
      <point x="404" y="-14" type="curve" smooth="yes"/>
      <point x="572" y="-14"/>
      <point x="740" y="55"/>
      <point x="740" y="152" type="curve" smooth="yes"/>
      <point x="740" y="224"/>
      <point x="652" y="289"/>
      <point x="572" y="336" type="curve" smooth="yes"/>
      <point x="561" y="343"/>
      <point x="559" y="351"/>
      <point x="578" y="356" type="curve" smooth="yes"/>
      <point x="598" y="363"/>
      <point x="619" y="367"/>
      <point x="638" y="377" type="curve" smooth="yes"/>
      <point x="674" y="394"/>
      <point x="710" y="421"/>
      <point x="710" y="458" type="curve" smooth="yes"/>
      <point x="710" y="533"/>
      <point x="575" y="582"/>
      <point x="438" y="582" type="curve" smooth="yes"/>
      <point x="289" y="582"/>
      <point x="132" y="524"/>
      <point x="132" y="449" type="curve" smooth="yes"/>
      <point x="132" y="373"/>
      <point x="224" y="308"/>
      <point x="286" y="260" type="curve" smooth="yes"/>
      <point x="294" y="253"/>
      <point x="299" y="250"/>
      <point x="289" y="248" type="curve" smooth="yes"/>
      <point x="220" y="235"/>
      <point x="107" y="211"/>
      <point x="107" y="130" type="curve" smooth="yes"/>
      <point x="107" y="44"/>
      <point x="249" y="-14"/>
    </contour>
    <contour>
      <point x="418" y="0" type="curve" smooth="yes"/>
      <point x="344" y="0"/>
      <point x="277" y="103"/>
      <point x="277" y="157" type="curve" smooth="yes"/>
      <point x="277" y="191"/>
      <point x="282" y="211"/>
      <point x="308" y="229" type="curve" smooth="yes"/>
      <point x="312" y="231"/>
      <point x="315" y="233"/>
      <point x="318" y="233" type="curve" smooth="yes"/>
      <point x="323" y="233"/>
      <point x="328" y="230"/>
      <point x="335" y="226" type="curve"/>
      <point x="384" y="199"/>
      <point x="506" y="113"/>
      <point x="506" y="72" type="curve" smooth="yes"/>
      <point x="506" y="34"/>
      <point x="469" y="0"/>
    </contour>
    <contour>
      <point x="543" y="356" type="curve"/>
      <point x="538" y="353"/>
      <point x="533" y="355"/>
      <point x="528" y="358" type="curve"/>
      <point x="473" y="392"/>
      <point x="338" y="459"/>
      <point x="338" y="507" type="curve" smooth="yes"/>
      <point x="338" y="541"/>
      <point x="381" y="569"/>
      <point x="418" y="569" type="curve" smooth="yes"/>
      <point x="474" y="569"/>
      <point x="572" y="483"/>
      <point x="572" y="435" type="curve" smooth="yes"/>
      <point x="572" y="404"/>
      <point x="568" y="375"/>
    </contour>
  </outline>
</glyph>
<glyph name="question" format="1">
  <advance width="444"/>
  <unicode hex="003F"/>
  <outline>
    <contour>
      <point x="155" y="159" type="curve" smooth="yes"/>
      <point x="160" y="159"/>
      <point x="166" y="172"/>
      <point x="168" y="180" type="curve" smooth="yes"/>
      <point x="174" y="207"/>
      <point x="180" y="229"/>
      <point x="208" y="244" type="curve" smooth="yes"/>
      <point x="240" y="262"/>
      <point x="265" y="271"/>
      <point x="309" y="291" type="curve" smooth="yes"/>
      <point x="343" y="304"/>
      <point x="374" y="332"/>
      <point x="374" y="389" type="curve" smooth="yes"/>
      <point x="374" y="446"/>
      <point x="329" y="542"/>
      <point x="261" y="605" type="curve" smooth="yes"/>
      <point x="222" y="642"/>
      <point x="175" y="661"/>
      <point x="135" y="661" type="curve" smooth="yes"/>
      <point x="118" y="661"/>
      <point x="95" y="644"/>
      <point x="95" y="625" type="curve" smooth="yes"/>
      <point x="95" y="598"/>
      <point x="116" y="569"/>
      <point x="137" y="569" type="curve" smooth="yes"/>
      <point x="147" y="569"/>
      <point x="154" y="570"/>
      <point x="161" y="571" type="curve" smooth="yes"/>
      <point x="168" y="572"/>
      <point x="175" y="573"/>
      <point x="184" y="573" type="curve" smooth="yes"/>
      <point x="276" y="572"/>
      <point x="315" y="534"/>
      <point x="315" y="491" type="curve" smooth="yes"/>
      <point x="315" y="470"/>
      <point x="273" y="453"/>
      <point x="234" y="441" type="curve" smooth="yes"/>
      <point x="139" y="403"/>
      <point x="102" y="366"/>
      <point x="102" y="324" type="curve" smooth="yes"/>
      <point x="102" y="269"/>
      <point x="127" y="223"/>
      <point x="133" y="197" type="curve" smooth="yes"/>
      <point x="139" y="177"/>
      <point x="146" y="159"/>
    </contour>
    <contour>
      <point x="180" y="-14" type="curve" smooth="yes"/>
      <point x="244" y="-14"/>
      <point x="281" y="6"/>
      <point x="281" y="42" type="curve" smooth="yes"/>
      <point x="281" y="77"/>
      <point x="244" y="97"/>
      <point x="180" y="97" type="curve" smooth="yes"/>
      <point x="118" y="97"/>
      <point x="81" y="77"/>
      <point x="81" y="42" type="curve" smooth="yes"/>
      <point x="81" y="6"/>
      <point x="118" y="-14"/>
    </contour>
  </outline>
</glyph>
<glyph name="at" format="1">
  <advance width="998"/>
  <unicode hex="0040"/>
  <outline>
    <contour>
      <point x="509" y="-148" type="curve" smooth="yes"/>
      <point x="658" y="-148"/>
      <point x="855" y="-47"/>
      <point x="855" y="-20" type="curve" smooth="yes"/>
      <point x="855" y="-15"/>
      <point x="852" y="-13"/>
      <point x="844" y="-13" type="curve" smooth="yes"/>
      <point x="840" y="-13"/>
      <point x="834" y="-17"/>
      <point x="827" y="-21" type="curve" smooth="yes"/>
      <point x="739" y="-88"/>
      <point x="610" y="-131"/>
      <point x="517" y="-131" type="curve" smooth="yes"/>
      <point x="300" y="-131"/>
      <point x="78" y="-16"/>
      <point x="78" y="208" type="curve" smooth="yes"/>
      <point x="78" y="427"/>
      <point x="291" y="551"/>
      <point x="528" y="551" type="curve" smooth="yes"/>
      <point x="760" y="551"/>
      <point x="914" y="418"/>
      <point x="914" y="262" type="curve" smooth="yes"/>
      <point x="914" y="155"/>
      <point x="851" y="81"/>
      <point x="765" y="81" type="curve" smooth="yes"/>
      <point x="751" y="81"/>
      <point x="747" y="96"/>
      <point x="747" y="113" type="curve" smooth="yes"/>
      <point x="747" y="123"/>
      <point x="749" y="134"/>
      <point x="750" y="144" type="curve"/>
      <point x="773" y="305" type="line" smooth="yes"/>
      <point x="775" y="323"/>
      <point x="786" y="368"/>
      <point x="795" y="395" type="curve"/>
      <point x="806" y="399"/>
      <point x="749" y="401"/>
      <point x="734" y="401" type="curve" smooth="yes"/>
      <point x="701" y="401"/>
      <point x="682" y="380"/>
      <point x="632" y="380" type="curve" smooth="yes"/>
      <point x="627" y="380"/>
      <point x="618" y="384"/>
      <point x="597" y="389" type="curve" smooth="yes"/>
      <point x="580" y="394"/>
      <point x="535" y="398"/>
      <point x="507" y="398" type="curve" smooth="yes"/>
      <point x="355" y="398"/>
      <point x="215" y="311"/>
      <point x="215" y="175" type="curve" smooth="yes"/>
      <point x="215" y="96"/>
      <point x="292" y="52"/>
      <point x="391" y="52" type="curve" smooth="yes"/>
      <point x="492" y="52"/>
      <point x="549" y="94"/>
      <point x="564" y="94" type="curve" smooth="yes"/>
      <point x="597" y="94"/>
      <point x="606" y="52"/>
      <point x="741" y="52" type="curve" smooth="yes"/>
      <point x="848" y="52"/>
      <point x="934" y="132"/>
      <point x="934" y="268" type="curve" smooth="yes"/>
      <point x="934" y="431"/>
      <point x="760" y="569"/>
      <point x="553" y="569" type="curve" smooth="yes"/>
      <point x="289" y="569"/>
      <point x="58" y="443"/>
      <point x="58" y="203" type="curve" smooth="yes"/>
      <point x="58" y="-4"/>
      <point x="263" y="-148"/>
    </contour>
    <contour>
      <point x="484" y="72" type="curve" smooth="yes"/>
      <point x="446" y="72"/>
      <point x="401" y="99"/>
      <point x="401" y="192" type="curve" smooth="yes"/>
      <point x="401" y="318"/>
      <point x="462" y="384"/>
      <point x="519" y="384" type="curve" smooth="yes"/>
      <point x="563" y="384"/>
      <point x="590" y="360"/>
      <point x="590" y="312" type="curve" smooth="yes"/>
      <point x="590" y="307"/>
      <point x="590" y="302"/>
      <point x="589" y="297" type="curve"/>
      <point x="571" y="162" type="line" smooth="yes"/>
      <point x="565" y="123"/>
      <point x="556" y="111"/>
      <point x="544" y="99" type="curve" smooth="yes"/>
      <point x="524" y="82"/>
      <point x="508" y="72"/>
    </contour>
  </outline>
</glyph>
<glyph name="C" format="1">
  <advance width="886"/>
  <unicode hex="0043"/>
  <outline>
    <contour>
      <point x="583" y="-15" type="curve" smooth="yes"/>
      <point x="648" y="-15"/>
      <point x="723" y="-6"/>
      <point x="772" y="14" type="curve" smooth="yes"/>
      <point x="793" y="21"/>
      <point x="794" y="22"/>
      <point x="804" y="41" type="curve" smooth="yes"/>
      <point x="816" y="70"/>
      <point x="831" y="122"/>
      <point x="831" y="138" type="curve" smooth="yes"/>
      <point x="831" y="159"/>
      <point x="809" y="159"/>
      <point x="800" y="141" type="curve" smooth="yes"/>
      <point x="753" y="41"/>
      <point x="700" y="1"/>
      <point x="598" y="1" type="curve" smooth="yes"/>
      <point x="429" y="1"/>
      <point x="323" y="162"/>
      <point x="323" y="321" type="curve" smooth="yes"/>
      <point x="323" y="464"/>
      <point x="431" y="598"/>
      <point x="591" y="598" type="curve" smooth="yes"/>
      <point x="663" y="598"/>
      <point x="705" y="577"/>
      <point x="735" y="551" type="curve" smooth="yes"/>
      <point x="767" y="523"/>
      <point x="780" y="488"/>
      <point x="793" y="437" type="curve" smooth="yes"/>
      <point x="799" y="414"/>
      <point x="825" y="423"/>
      <point x="824" y="438" type="curve" smooth="yes"/>
      <point x="821" y="490"/>
      <point x="818" y="522"/>
      <point x="815" y="553" type="curve" smooth="yes"/>
      <point x="813" y="571"/>
      <point x="806" y="582"/>
      <point x="786" y="587" type="curve" smooth="yes"/>
      <point x="718" y="604"/>
      <point x="685" y="613"/>
      <point x="608" y="613" type="curve" smooth="yes"/>
      <point x="298" y="613"/>
      <point x="46" y="498"/>
      <point x="46" y="298" type="curve" smooth="yes"/>
      <point x="46" y="97"/>
      <point x="293" y="-15"/>
    </contour>
  </outline>
</glyph>
<glyph name="E" format="1">
  <advance width="744"/>
  <unicode hex="0045"/>
  <outline>
    <contour>
      <point x="77" y="-5" type="curve" smooth="yes"/>
      <point x="153" y="-5"/>
      <point x="175" y="1"/>
      <point x="238" y="1" type="curve" smooth="yes"/>
      <point x="377" y="1"/>
      <point x="495" y="-5"/>
      <point x="674" y="-5" type="curve" smooth="yes"/>
      <point x="682" y="-5"/>
      <point x="684" y="3"/>
      <point x="688" y="12" type="curve" smooth="yes"/>
      <point x="700" y="39"/>
      <point x="719" y="110"/>
      <point x="719" y="128" type="curve" smooth="yes"/>
      <point x="719" y="136"/>
      <point x="717" y="141"/>
      <point x="710" y="142" type="curve" smooth="yes"/>
      <point x="703" y="143"/>
      <point x="698" y="135"/>
      <point x="694" y="126" type="curve" smooth="yes"/>
      <point x="674" y="78"/>
      <point x="658" y="51"/>
      <point x="638" y="34" type="curve" smooth="yes"/>
      <point x="617" y="18"/>
      <point x="591" y="14"/>
      <point x="549" y="14" type="curve" smooth="yes"/>
      <point x="470" y="14" type="line" smooth="yes"/>
      <point x="425" y="14"/>
      <point x="404" y="30"/>
      <point x="404" y="81" type="curve" smooth="yes"/>
      <point x="404" y="276" type="line" smooth="yes"/>
      <point x="404" y="299"/>
      <point x="415" y="302"/>
      <point x="438" y="302" type="curve" smooth="yes"/>
      <point x="539" y="302" type="line" smooth="yes"/>
      <point x="564" y="302"/>
      <point x="577" y="279"/>
      <point x="584" y="248" type="curve" smooth="yes"/>
      <point x="589" y="227"/>
      <point x="593" y="216"/>
      <point x="602" y="216" type="curve" smooth="yes"/>
      <point x="610" y="216"/>
      <point x="609" y="224"/>
      <point x="609" y="233" type="curve" smooth="yes"/>
      <point x="609" y="241"/>
      <point x="607" y="290"/>
      <point x="607" y="310" type="curve" smooth="yes"/>
      <point x="607" y="326"/>
      <point x="610" y="371"/>
      <point x="610" y="380" type="curve" smooth="yes"/>
      <point x="610" y="390"/>
      <point x="604" y="396"/>
      <point x="599" y="396" type="curve" smooth="yes"/>
      <point x="592" y="396"/>
      <point x="590" y="389"/>
      <point x="586" y="374" type="curve" smooth="yes"/>
      <point x="576" y="337"/>
      <point x="566" y="316"/>
      <point x="530" y="316" type="curve" smooth="yes"/>
      <point x="422" y="316" type="line" smooth="yes"/>
      <point x="412" y="316"/>
      <point x="404" y="326"/>
      <point x="404" y="338" type="curve" smooth="yes"/>
      <point x="404" y="562" type="line" smooth="yes"/>
      <point x="404" y="578"/>
      <point x="419" y="586"/>
      <point x="442" y="586" type="curve" smooth="yes"/>
      <point x="585" y="586" type="line" smooth="yes"/>
      <point x="606" y="586"/>
      <point x="621" y="579"/>
      <point x="636" y="550" type="curve" smooth="yes"/>
      <point x="643" y="538"/>
      <point x="654" y="513"/>
      <point x="663" y="489" type="curve" smooth="yes"/>
      <point x="667" y="478"/>
      <point x="670" y="476"/>
      <point x="676" y="476" type="curve" smooth="yes"/>
      <point x="682" y="476"/>
      <point x="685" y="479"/>
      <point x="685" y="491" type="curve" smooth="yes"/>
      <point x="685" y="518"/>
      <point x="677" y="556"/>
      <point x="671" y="589" type="curve"/>
      <point x="669" y="599"/>
      <point x="656" y="603"/>
      <point x="645" y="603" type="curve" smooth="yes"/>
      <point x="638" y="603"/>
      <point x="589" y="602"/>
      <point x="525" y="601" type="curve" smooth="yes"/>
      <point x="466" y="601"/>
      <point x="395" y="600"/>
      <point x="333" y="600" type="curve" smooth="yes"/>
      <point x="235" y="600"/>
      <point x="190" y="603"/>
      <point x="85" y="603" type="curve" smooth="yes"/>
      <point x="61" y="603"/>
      <point x="44" y="602"/>
      <point x="44" y="597" type="curve" smooth="yes"/>
      <point x="44" y="592"/>
      <point x="54" y="589"/>
      <point x="77" y="587" type="curve" smooth="yes"/>
      <point x="127" y="582"/>
      <point x="144" y="573"/>
      <point x="144" y="548" type="curve" smooth="yes"/>
      <point x="144" y="72" type="line" smooth="yes"/>
      <point x="144" y="28"/>
      <point x="128" y="17"/>
      <point x="70" y="11" type="curve" smooth="yes"/>
      <point x="47" y="9"/>
      <point x="37" y="6"/>
      <point x="37" y="1" type="curve" smooth="yes"/>
      <point x="37" y="-4"/>
      <point x="54" y="-5"/>
    </contour>
  </outline>
</glyph>
<glyph name="H" format="1">
  <advance width="1173"/>
  <unicode hex="0048"/>
  <outline>
    <contour>
      <point x="66" y="-5" type="curve" smooth="yes"/>
      <point x="163" y="-5"/>
      <point x="186" y="-3"/>
      <point x="264" y="-3" type="curve" smooth="yes"/>
      <point x="346" y="-3"/>
      <point x="376" y="-5"/>
      <point x="473" y="-5" type="curve" smooth="yes"/>
      <point x="490" y="-5"/>
      <point x="502" y="-3"/>
      <point x="502" y="1" type="curve" smooth="yes"/>
      <point x="502" y="5"/>
      <point x="493" y="6"/>
      <point x="470" y="9" type="curve" smooth="yes"/>
      <point x="424" y="13"/>
      <point x="390" y="28"/>
      <point x="390" y="48" type="curve" smooth="yes"/>
      <point x="390" y="282" type="line" smooth="yes"/>
      <point x="390" y="290"/>
      <point x="390" y="293"/>
      <point x="395" y="293" type="curve" smooth="yes"/>
      <point x="777" y="293" type="line" smooth="yes"/>
      <point x="783" y="293"/>
      <point x="782" y="287"/>
      <point x="782" y="279" type="curve" smooth="yes"/>
      <point x="782" y="47" type="line" smooth="yes"/>
      <point x="782" y="24"/>
      <point x="760" y="13"/>
      <point x="713" y="9" type="curve" smooth="yes"/>
      <point x="690" y="6"/>
      <point x="681" y="5"/>
      <point x="681" y="1" type="curve" smooth="yes"/>
      <point x="681" y="-3"/>
      <point x="693" y="-5"/>
      <point x="710" y="-5" type="curve" smooth="yes"/>
      <point x="811" y="-5"/>
      <point x="831" y="-3"/>
      <point x="910" y="-3" type="curve" smooth="yes"/>
      <point x="986" y="-3"/>
      <point x="1003" y="-5"/>
      <point x="1104" y="-5" type="curve" smooth="yes"/>
      <point x="1121" y="-5"/>
      <point x="1133" y="-3"/>
      <point x="1133" y="1" type="curve" smooth="yes"/>
      <point x="1133" y="5"/>
      <point x="1124" y="6"/>
      <point x="1101" y="9" type="curve" smooth="yes"/>
      <point x="1051" y="13"/>
      <point x="1042" y="22"/>
      <point x="1042" y="44" type="curve" smooth="yes"/>
      <point x="1042" y="551" type="line" smooth="yes"/>
      <point x="1042" y="574"/>
      <point x="1045" y="583"/>
      <point x="1095" y="587" type="curve" smooth="yes"/>
      <point x="1118" y="588"/>
      <point x="1128" y="591"/>
      <point x="1128" y="595" type="curve" smooth="yes"/>
      <point x="1128" y="599"/>
      <point x="1119" y="601"/>
      <point x="1099" y="601" type="curve" smooth="yes"/>
      <point x="998" y="601"/>
      <point x="996" y="600"/>
      <point x="929" y="600" type="curve" smooth="yes"/>
      <point x="844" y="600"/>
      <point x="813" y="601"/>
      <point x="712" y="601" type="curve" smooth="yes"/>
      <point x="693" y="601"/>
      <point x="683" y="599"/>
      <point x="683" y="595" type="curve" smooth="yes"/>
      <point x="683" y="591"/>
      <point x="693" y="588"/>
      <point x="716" y="587" type="curve" smooth="yes"/>
      <point x="766" y="582"/>
      <point x="782" y="570"/>
      <point x="782" y="551" type="curve" smooth="yes"/>
      <point x="782" y="318" type="line" smooth="yes"/>
      <point x="782" y="310"/>
      <point x="778" y="308"/>
      <point x="772" y="308" type="curve" smooth="yes"/>
      <point x="404" y="308" type="line" smooth="yes"/>
      <point x="398" y="308"/>
      <point x="390" y="309"/>
      <point x="390" y="317" type="curve" smooth="yes"/>
      <point x="390" y="552" type="line" smooth="yes"/>
      <point x="390" y="571"/>
      <point x="408" y="583"/>
      <point x="458" y="587" type="curve" smooth="yes"/>
      <point x="481" y="588"/>
      <point x="491" y="591"/>
      <point x="491" y="595" type="curve" smooth="yes"/>
      <point x="491" y="599"/>
      <point x="482" y="601"/>
      <point x="462" y="601" type="curve" smooth="yes"/>
      <point x="364" y="601"/>
      <point x="343" y="600"/>
      <point x="265" y="600" type="curve" smooth="yes"/>
      <point x="190" y="600"/>
      <point x="173" y="601"/>
      <point x="73" y="601" type="curve" smooth="yes"/>
      <point x="53" y="601"/>
      <point x="44" y="599"/>
      <point x="44" y="595" type="curve" smooth="yes"/>
      <point x="44" y="591"/>
      <point x="54" y="588"/>
      <point x="77" y="587" type="curve" smooth="yes"/>
      <point x="127" y="583"/>
      <point x="130" y="574"/>
      <point x="130" y="552" type="curve" smooth="yes"/>
      <point x="130" y="44" type="line" smooth="yes"/>
      <point x="130" y="21"/>
      <point x="119" y="13"/>
      <point x="69" y="9" type="curve" smooth="yes"/>
      <point x="46" y="6"/>
      <point x="37" y="5"/>
      <point x="37" y="1" type="curve" smooth="yes"/>
      <point x="37" y="-3"/>
      <point x="49" y="-5"/>
    </contour>
  </outline>
</glyph>
<glyph name="J" format="1">
  <advance width="526"/>
  <unicode hex="004A"/>
  <outline>
    <contour>
      <point x="101" y="-200" type="curve" smooth="yes"/>
      <point x="165" y="-200"/>
      <point x="216" y="-178"/>
      <point x="260" y="-146" type="curve" smooth="yes"/>
      <point x="313" y="-108"/>
      <point x="390" y="-37"/>
      <point x="390" y="47" type="curve" smooth="yes"/>
      <point x="390" y="545" type="line" smooth="yes"/>
      <point x="390" y="571"/>
      <point x="414" y="580"/>
      <point x="464" y="585" type="curve" smooth="yes"/>
      <point x="487" y="587"/>
      <point x="497" y="591"/>
      <point x="497" y="596" type="curve" smooth="yes"/>
      <point x="497" y="600"/>
      <point x="485" y="602"/>
      <point x="468" y="602" type="curve" smooth="yes"/>
      <point x="371" y="602"/>
      <point x="347" y="600"/>
      <point x="269" y="600" type="curve" smooth="yes"/>
      <point x="186" y="600"/>
      <point x="156" y="602"/>
      <point x="59" y="602" type="curve" smooth="yes"/>
      <point x="42" y="602"/>
      <point x="30" y="600"/>
      <point x="30" y="596" type="curve" smooth="yes"/>
      <point x="30" y="591"/>
      <point x="40" y="587"/>
      <point x="63" y="585" type="curve" smooth="yes"/>
      <point x="113" y="580"/>
      <point x="130" y="571"/>
      <point x="130" y="545" type="curve" smooth="yes"/>
      <point x="130" y="-1" type="line" smooth="yes"/>
      <point x="130" y="-110"/>
      <point x="111" y="-177"/>
      <point x="64" y="-177" type="curve" smooth="yes"/>
      <point x="47" y="-177"/>
      <point x="34" y="-167"/>
      <point x="17" y="-137" type="curve" smooth="yes"/>
      <point x="3" y="-113"/>
      <point x="-13" y="-104"/>
      <point x="-30" y="-104" type="curve" smooth="yes"/>
      <point x="-45" y="-104"/>
      <point x="-69" y="-128"/>
      <point x="-69" y="-151" type="curve" smooth="yes"/>
      <point x="-69" y="-182"/>
      <point x="-11" y="-200"/>
    </contour>
  </outline>
</glyph>
<glyph name="K" format="1">
  <advance width="1081"/>
  <unicode hex="004B"/>
  <outline>
    <contour>
      <point x="79" y="-5" type="curve" smooth="yes"/>
      <point x="167" y="-5"/>
      <point x="205" y="2"/>
      <point x="285" y="2" type="curve" smooth="yes"/>
      <point x="348" y="2"/>
      <point x="358" y="-5"/>
      <point x="446" y="-5" type="curve" smooth="yes"/>
      <point x="474" y="-5"/>
      <point x="494" y="-4"/>
      <point x="494" y="0" type="curve" smooth="yes"/>
      <point x="494" y="4"/>
      <point x="484" y="7"/>
      <point x="461" y="9" type="curve" smooth="yes"/>
      <point x="411" y="13"/>
      <point x="398" y="29"/>
      <point x="397" y="52" type="curve" smooth="yes"/>
      <point x="393" y="178"/>
      <point x="392" y="222"/>
      <point x="392" y="276" type="curve" smooth="yes"/>
      <point x="392" y="283"/>
      <point x="391" y="297"/>
      <point x="396" y="297" type="curve" smooth="yes"/>
      <point x="401" y="297"/>
      <point x="410" y="289"/>
      <point x="419" y="281" type="curve"/>
      <point x="644" y="46" type="line" smooth="yes"/>
      <point x="653" y="38"/>
      <point x="660" y="31"/>
      <point x="660" y="26" type="curve" smooth="yes"/>
      <point x="659" y="18"/>
      <point x="645" y="15"/>
      <point x="616" y="12" type="curve"/>
      <point x="597" y="11"/>
      <point x="589" y="9"/>
      <point x="589" y="5" type="curve" smooth="yes"/>
      <point x="589" y="0"/>
      <point x="609" y="-1"/>
      <point x="638" y="-1" type="curve" smooth="yes"/>
      <point x="713" y="-1"/>
      <point x="733" y="0"/>
      <point x="775" y="0" type="curve" smooth="yes"/>
      <point x="867" y="0"/>
      <point x="941" y="-5"/>
      <point x="1040" y="-5" type="curve" smooth="yes"/>
      <point x="1068" y="-5"/>
      <point x="1088" y="-4"/>
      <point x="1088" y="1" type="curve" smooth="yes"/>
      <point x="1088" y="5"/>
      <point x="1078" y="8"/>
      <point x="1058" y="9" type="curve" smooth="yes"/>
      <point x="1030" y="12"/>
      <point x="1015" y="21"/>
      <point x="968" y="64" type="curve" smooth="yes"/>
      <point x="602" y="420" type="line" smooth="yes"/>
      <point x="595" y="426"/>
      <point x="592" y="434"/>
      <point x="597" y="438" type="curve"/>
      <point x="638" y="472"/>
      <point x="692" y="519"/>
      <point x="733" y="547" type="curve" smooth="yes"/>
      <point x="803" y="583"/>
      <point x="897" y="588"/>
      <point x="1021" y="589" type="curve" smooth="yes"/>
      <point x="1063" y="589"/>
      <point x="1074" y="595"/>
      <point x="1074" y="599" type="curve" smooth="yes"/>
      <point x="1074" y="603"/>
      <point x="1063" y="605"/>
      <point x="1048" y="605" type="curve" smooth="yes"/>
      <point x="1024" y="605"/>
      <point x="852" y="601"/>
      <point x="744" y="601" type="curve" smooth="yes"/>
      <point x="643" y="601" type="line" smooth="yes"/>
      <point x="611" y="601"/>
      <point x="589" y="599"/>
      <point x="589" y="596" type="curve" smooth="yes"/>
      <point x="589" y="592"/>
      <point x="596" y="587"/>
      <point x="620" y="586" type="curve" smooth="yes"/>
      <point x="652" y="585"/>
      <point x="666" y="581"/>
      <point x="666" y="571" type="curve" smooth="yes"/>
      <point x="666" y="563"/>
      <point x="655" y="552"/>
      <point x="635" y="536" type="curve" smooth="yes"/>
      <point x="427" y="340" type="line"/>
      <point x="417" y="331"/>
      <point x="404" y="323"/>
      <point x="397" y="323" type="curve" smooth="yes"/>
      <point x="392" y="323"/>
      <point x="392" y="337"/>
      <point x="392" y="342" type="curve" smooth="yes"/>
      <point x="392" y="551" type="line" smooth="yes"/>
      <point x="392" y="569"/>
      <point x="394" y="586"/>
      <point x="446" y="589" type="curve" smooth="yes"/>
      <point x="469" y="590"/>
      <point x="479" y="594"/>
      <point x="479" y="598" type="curve" smooth="yes"/>
      <point x="479" y="601"/>
      <point x="459" y="603"/>
      <point x="430" y="603" type="curve" smooth="yes"/>
      <point x="339" y="603"/>
      <point x="331" y="601"/>
      <point x="267" y="601" type="curve" smooth="yes"/>
      <point x="194" y="601"/>
      <point x="170" y="603"/>
      <point x="80" y="603" type="curve" smooth="yes"/>
      <point x="51" y="603"/>
      <point x="31" y="601"/>
      <point x="31" y="597" type="curve" smooth="yes"/>
      <point x="31" y="593"/>
      <point x="41" y="588"/>
      <point x="64" y="587" type="curve" smooth="yes"/>
      <point x="119" y="585"/>
      <point x="131" y="574"/>
      <point x="131" y="544" type="curve" smooth="yes"/>
      <point x="131" y="49" type="line" smooth="yes"/>
      <point x="131" y="21"/>
      <point x="114" y="13"/>
      <point x="64" y="9" type="curve" smooth="yes"/>
      <point x="41" y="7"/>
      <point x="31" y="4"/>
      <point x="31" y="0" type="curve" smooth="yes"/>
      <point x="31" y="-4"/>
      <point x="51" y="-5"/>
    </contour>
  </outline>
</glyph>
<glyph name="M" format="1">
  <advance width="1270"/>
  <unicode hex="004D"/>
  <outline>
    <contour>
      <point x="48" y="-5" type="curve" smooth="yes"/>
      <point x="102" y="-5"/>
      <point x="103" y="0"/>
      <point x="139" y="0" type="curve" smooth="yes"/>
      <point x="176" y="0"/>
      <point x="179" y="-5"/>
      <point x="233" y="-5" type="curve" smooth="yes"/>
      <point x="250" y="-5"/>
      <point x="262" y="-4"/>
      <point x="262" y="1" type="curve" smooth="yes"/>
      <point x="262" y="7"/>
      <point x="252" y="9"/>
      <point x="229" y="11" type="curve" smooth="yes"/>
      <point x="173" y="16"/>
      <point x="150" y="31"/>
      <point x="150" y="74" type="curve" smooth="yes"/>
      <point x="150" y="218"/>
      <point x="167" y="360"/>
      <point x="176" y="478" type="curve" smooth="yes"/>
      <point x="176" y="485"/>
      <point x="186" y="485"/>
      <point x="189" y="478" type="curve" smooth="yes"/>
      <point x="261" y="320"/>
      <point x="341" y="136"/>
      <point x="386" y="18" type="curve" smooth="yes"/>
      <point x="402" y="-25"/>
      <point x="585" y="-43"/>
      <point x="614" y="15" type="curve" smooth="yes"/>
      <point x="832" y="451" type="line" smooth="yes"/>
      <point x="839" y="464"/>
      <point x="846" y="465"/>
      <point x="848" y="451" type="curve"/>
      <point x="855" y="335"/>
      <point x="862" y="221"/>
      <point x="862" y="48" type="curve" smooth="yes"/>
      <point x="862" y="23"/>
      <point x="850" y="14"/>
      <point x="811" y="11" type="curve" smooth="yes"/>
      <point x="788" y="9"/>
      <point x="778" y="6"/>
      <point x="778" y="1" type="curve" smooth="yes"/>
      <point x="778" y="-3"/>
      <point x="798" y="-5"/>
      <point x="826" y="-5" type="curve" smooth="yes"/>
      <point x="913" y="-5"/>
      <point x="930" y="0"/>
      <point x="997" y="0" type="curve" smooth="yes"/>
      <point x="1072" y="0"/>
      <point x="1099" y="-5"/>
      <point x="1187" y="-5" type="curve" smooth="yes"/>
      <point x="1215" y="-5"/>
      <point x="1234" y="-3"/>
      <point x="1234" y="1" type="curve" smooth="yes"/>
      <point x="1234" y="6"/>
      <point x="1224" y="9"/>
      <point x="1201" y="11" type="curve" smooth="yes"/>
      <point x="1151" y="15"/>
      <point x="1128" y="27"/>
      <point x="1126" y="48" type="curve" smooth="yes"/>
      <point x="1118" y="230"/>
      <point x="1104" y="352"/>
      <point x="1104" y="544" type="curve" smooth="yes"/>
      <point x="1104" y="570"/>
      <point x="1111" y="578"/>
      <point x="1128" y="582" type="curve" smooth="yes"/>
      <point x="1146" y="585"/>
      <point x="1169" y="589"/>
      <point x="1187" y="592" type="curve" smooth="yes"/>
      <point x="1207" y="596"/>
      <point x="1213" y="597"/>
      <point x="1213" y="602" type="curve" smooth="yes"/>
      <point x="1213" y="606"/>
      <point x="1184" y="606"/>
      <point x="1172" y="606" type="curve" smooth="yes"/>
      <point x="1126" y="606"/>
      <point x="1026" y="598"/>
      <point x="947" y="598" type="curve" smooth="yes"/>
      <point x="876" y="598" type="line" smooth="yes"/>
      <point x="866" y="598"/>
      <point x="860" y="593"/>
      <point x="856" y="585" type="curve" smooth="yes"/>
      <point x="852" y="563"/>
      <point x="843" y="512"/>
      <point x="837" y="488" type="curve"/>
      <point x="646" y="109" type="line" smooth="yes"/>
      <point x="641" y="100"/>
      <point x="633" y="103"/>
      <point x="629" y="112" type="curve" smooth="yes"/>
      <point x="459" y="506" type="line" smooth="yes"/>
      <point x="449" y="534"/>
      <point x="445" y="556"/>
      <point x="438" y="581" type="curve" smooth="yes"/>
      <point x="433" y="591"/>
      <point x="419" y="597"/>
      <point x="401" y="597" type="curve" smooth="yes"/>
      <point x="350" y="597"/>
      <point x="158" y="605"/>
      <point x="107" y="605" type="curve" smooth="yes"/>
      <point x="69" y="605"/>
      <point x="42" y="605"/>
      <point x="42" y="601" type="curve" smooth="yes"/>
      <point x="42" y="597"/>
      <point x="51" y="594"/>
      <point x="64" y="592" type="curve" smooth="yes"/>
      <point x="105" y="588"/>
      <point x="127" y="586"/>
      <point x="142" y="576" type="curve" smooth="yes"/>
      <point x="152" y="569"/>
      <point x="155" y="559"/>
      <point x="155" y="545" type="curve" smooth="yes"/>
      <point x="156" y="534"/>
      <point x="155" y="521"/>
      <point x="155" y="506" type="curve" smooth="yes"/>
      <point x="155" y="404"/>
      <point x="143" y="260"/>
      <point x="122" y="71" type="curve" smooth="yes"/>
      <point x="116" y="27"/>
      <point x="101" y="15"/>
      <point x="52" y="10" type="curve" smooth="yes"/>
      <point x="29" y="8"/>
      <point x="19" y="7"/>
      <point x="19" y="1" type="curve" smooth="yes"/>
      <point x="19" y="-4"/>
      <point x="31" y="-5"/>
    </contour>
  </outline>
</glyph>
<glyph name="Q" format="1">
  <advance width="1119"/>
  <unicode hex="0051"/>
  <outline>
    <contour>
      <point x="1109" y="-263" type="curve" smooth="yes"/>
      <point x="1172" y="-263"/>
      <point x="1236" y="-247"/>
      <point x="1296" y="-212" type="curve" smooth="yes"/>
      <point x="1318" y="-199"/>
      <point x="1322" y="-193"/>
      <point x="1321" y="-179" type="curve" smooth="yes"/>
      <point x="1320" y="-172"/>
      <point x="1312" y="-170"/>
      <point x="1303" y="-171" type="curve" smooth="yes"/>
      <point x="1294" y="-172"/>
      <point x="1284" y="-176"/>
      <point x="1275" y="-179" type="curve"/>
      <point x="1261" y="-185"/>
      <point x="1227" y="-190"/>
      <point x="1190" y="-190" type="curve" smooth="yes"/>
      <point x="1098" y="-190"/>
      <point x="1038" y="-173"/>
      <point x="958" y="-120" type="curve" smooth="yes"/>
      <point x="899" y="-80"/>
      <point x="855" y="-45"/>
      <point x="808" y="2" type="curve"/>
      <point x="805" y="5"/>
      <point x="804" y="8"/>
      <point x="804" y="11" type="curve" smooth="yes"/>
      <point x="804" y="13"/>
      <point x="805" y="16"/>
      <point x="813" y="19" type="curve" smooth="yes"/>
      <point x="983" y="67"/>
      <point x="1074" y="182"/>
      <point x="1074" y="309" type="curve" smooth="yes"/>
      <point x="1074" y="501"/>
      <point x="836" y="614"/>
      <point x="567" y="614" type="curve" smooth="yes"/>
      <point x="219" y="614"/>
      <point x="45" y="466"/>
      <point x="45" y="291" type="curve" smooth="yes"/>
      <point x="45" y="143"/>
      <point x="176" y="51"/>
      <point x="351" y="8" type="curve" smooth="yes"/>
      <point x="455" y="-20"/>
      <point x="518" y="-44"/>
      <point x="577" y="-79" type="curve" smooth="yes"/>
      <point x="642" y="-121"/>
      <point x="685" y="-145"/>
      <point x="755" y="-178" type="curve" smooth="yes"/>
      <point x="881" y="-232"/>
      <point x="954" y="-263"/>
    </contour>
    <contour>
      <point x="570" y="2" type="curve" smooth="yes"/>
      <point x="403" y="2"/>
      <point x="319" y="154"/>
      <point x="319" y="340" type="curve" smooth="yes"/>
      <point x="319" y="496"/>
      <point x="397" y="596"/>
      <point x="548" y="596" type="curve" smooth="yes"/>
      <point x="715" y="596"/>
      <point x="800" y="446"/>
      <point x="800" y="261" type="curve" smooth="yes"/>
      <point x="800" y="105"/>
      <point x="723" y="2"/>
    </contour>
  </outline>
</glyph>
<glyph name="R" format="1">
  <advance width="1056"/>
  <unicode hex="0052"/>
  <outline>
    <contour>
      <point x="920" y="-21" type="curve" smooth="yes"/>
      <point x="964" y="-21"/>
      <point x="1062" y="-18"/>
      <point x="1062" y="-4" type="curve" smooth="yes"/>
      <point x="1062" y="0"/>
      <point x="1057" y="1"/>
      <point x="1047" y="1" type="curve" smooth="yes"/>
      <point x="1010" y="1"/>
      <point x="989" y="10"/>
      <point x="957" y="34" type="curve" smooth="yes"/>
      <point x="848" y="119"/>
      <point x="787" y="207"/>
      <point x="725" y="292" type="curve" smooth="yes"/>
      <point x="721" y="298"/>
      <point x="720" y="303"/>
      <point x="725" y="305" type="curve"/>
      <point x="780" y="331"/>
      <point x="846" y="372"/>
      <point x="846" y="455" type="curve" smooth="yes"/>
      <point x="846" y="566"/>
      <point x="694" y="607"/>
      <point x="372" y="607" type="curve" smooth="yes"/>
      <point x="291" y="607"/>
      <point x="265" y="602"/>
      <point x="212" y="602" type="curve" smooth="yes"/>
      <point x="155" y="602"/>
      <point x="151" y="603"/>
      <point x="76" y="603" type="curve" smooth="yes"/>
      <point x="52" y="603"/>
      <point x="36" y="601"/>
      <point x="36" y="597" type="curve" smooth="yes"/>
      <point x="36" y="592"/>
      <point x="46" y="587"/>
      <point x="69" y="586" type="curve" smooth="yes"/>
      <point x="126" y="583"/>
      <point x="130" y="575"/>
      <point x="130" y="509" type="curve" smooth="yes"/>
      <point x="130" y="69" type="line" smooth="yes"/>
      <point x="130" y="26"/>
      <point x="116" y="16"/>
      <point x="57" y="11" type="curve" smooth="yes"/>
      <point x="34" y="9"/>
      <point x="24" y="6"/>
      <point x="24" y="1" type="curve" smooth="yes"/>
      <point x="24" y="-4"/>
      <point x="44" y="-5"/>
      <point x="71" y="-5" type="curve" smooth="yes"/>
      <point x="159" y="-5"/>
      <point x="200" y="2"/>
      <point x="283" y="2" type="curve" smooth="yes"/>
      <point x="345" y="2"/>
      <point x="355" y="-5"/>
      <point x="443" y="-5" type="curve" smooth="yes"/>
      <point x="471" y="-5"/>
      <point x="490" y="-4"/>
      <point x="490" y="1" type="curve" smooth="yes"/>
      <point x="490" y="6"/>
      <point x="480" y="9"/>
      <point x="457" y="11" type="curve" smooth="yes"/>
      <point x="404" y="15"/>
      <point x="390" y="29"/>
      <point x="390" y="70" type="curve" smooth="yes"/>
      <point x="390" y="261" type="line" smooth="yes"/>
      <point x="390" y="273"/>
      <point x="394" y="282"/>
      <point x="405" y="281" type="curve" smooth="yes"/>
      <point x="423" y="279"/>
      <point x="455" y="274"/>
      <point x="484" y="260" type="curve" smooth="yes"/>
      <point x="504" y="250"/>
      <point x="517" y="239"/>
      <point x="529" y="222" type="curve" smooth="yes"/>
      <point x="597" y="122"/>
      <point x="622" y="93"/>
      <point x="669" y="44" type="curve" smooth="yes"/>
      <point x="722" y="-11"/>
      <point x="821" y="-21"/>
    </contour>
    <contour>
      <point x="443" y="293" type="curve" smooth="yes"/>
      <point x="410" y="293"/>
      <point x="390" y="295"/>
      <point x="390" y="331" type="curve" smooth="yes"/>
      <point x="390" y="409"/>
      <point x="391" y="463"/>
      <point x="392" y="496" type="curve" smooth="yes"/>
      <point x="395" y="564"/>
      <point x="403" y="587"/>
      <point x="446" y="587" type="curve" smooth="yes"/>
      <point x="572" y="587"/>
      <point x="593" y="520"/>
      <point x="593" y="440" type="curve" smooth="yes"/>
      <point x="593" y="351"/>
      <point x="559" y="293"/>
    </contour>
  </outline>
</glyph>
<glyph name="S" format="1">
  <advance width="632"/>
  <unicode hex="0053"/>
  <outline>
    <contour>
      <point x="284" y="-16" type="curve" smooth="yes"/>
      <point x="468" y="-16"/>
      <point x="589" y="68"/>
      <point x="589" y="210" type="curve" smooth="yes"/>
      <point x="589" y="316"/>
      <point x="504" y="367"/>
      <point x="381" y="398" type="curve" smooth="yes"/>
      <point x="236" y="433"/>
      <point x="180" y="459"/>
      <point x="180" y="507" type="curve" smooth="yes"/>
      <point x="180" y="552"/>
      <point x="216" y="597"/>
      <point x="340" y="597" type="curve" smooth="yes"/>
      <point x="462" y="597"/>
      <point x="503" y="575"/>
      <point x="543" y="471" type="curve" smooth="yes"/>
      <point x="546" y="464"/>
      <point x="556" y="458"/>
      <point x="567" y="458" type="curve" smooth="yes"/>
      <point x="574" y="458"/>
      <point x="579" y="461"/>
      <point x="579" y="468" type="curve" smooth="yes"/>
      <point x="579" y="498"/>
      <point x="568" y="544"/>
      <point x="559" y="570" type="curve" smooth="yes"/>
      <point x="556" y="580"/>
      <point x="543" y="590"/>
      <point x="528" y="594" type="curve" smooth="yes"/>
      <point x="498" y="602"/>
      <point x="452" y="614"/>
      <point x="373" y="614" type="curve" smooth="yes"/>
      <point x="135" y="614"/>
      <point x="65" y="525"/>
      <point x="65" y="414" type="curve" smooth="yes"/>
      <point x="65" y="290"/>
      <point x="180" y="247"/>
      <point x="325" y="217" type="curve" smooth="yes"/>
      <point x="450" y="191"/>
      <point x="472" y="166"/>
      <point x="472" y="112" type="curve" smooth="yes"/>
      <point x="472" y="59"/>
      <point x="423" y="0"/>
      <point x="326" y="0" type="curve" smooth="yes"/>
      <point x="205" y="0"/>
      <point x="119" y="22"/>
      <point x="71" y="160" type="curve" smooth="yes"/>
      <point x="68" y="167"/>
      <point x="60" y="171"/>
      <point x="56" y="171" type="curve" smooth="yes"/>
      <point x="49" y="171"/>
      <point x="40" y="166"/>
      <point x="40" y="157" type="curve"/>
      <point x="41" y="128"/>
      <point x="45" y="77"/>
      <point x="54" y="49" type="curve" smooth="yes"/>
      <point x="56" y="41"/>
      <point x="65" y="33"/>
      <point x="72" y="29" type="curve"/>
      <point x="126" y="0"/>
      <point x="205" y="-16"/>
    </contour>
  </outline>
</glyph>
<glyph name="Y" format="1">
  <advance width="768"/>
  <unicode hex="0059"/>
  <outline>
    <contour>
      <point x="199" y="-5" type="curve" smooth="yes"/>
      <point x="285" y="-5"/>
      <point x="324" y="-3"/>
      <point x="403" y="-3" type="curve" smooth="yes"/>
      <point x="476" y="-3"/>
      <point x="504" y="-5"/>
      <point x="590" y="-5" type="curve" smooth="yes"/>
      <point x="617" y="-5"/>
      <point x="636" y="-4"/>
      <point x="636" y="0" type="curve" smooth="yes"/>
      <point x="636" y="4"/>
      <point x="626" y="6"/>
      <point x="603" y="8" type="curve" smooth="yes"/>
      <point x="553" y="12"/>
      <point x="524" y="25"/>
      <point x="524" y="54" type="curve" smooth="yes"/>
      <point x="524" y="257" type="line" smooth="yes"/>
      <point x="524" y="293"/>
      <point x="523" y="301"/>
      <point x="549" y="340" type="curve" smooth="yes"/>
      <point x="593" y="407"/>
      <point x="612" y="435"/>
      <point x="658" y="508" type="curve" smooth="yes"/>
      <point x="692" y="560"/>
      <point x="713" y="579"/>
      <point x="749" y="586" type="curve" smooth="yes"/>
      <point x="774" y="590"/>
      <point x="801" y="593"/>
      <point x="801" y="597" type="curve" smooth="yes"/>
      <point x="801" y="602"/>
      <point x="789" y="603"/>
      <point x="772" y="603" type="curve" smooth="yes"/>
      <point x="749" y="603"/>
      <point x="709" y="602"/>
      <point x="668" y="602" type="curve" smooth="yes"/>
      <point x="639" y="602"/>
      <point x="623" y="602"/>
      <point x="593" y="602" type="curve" smooth="yes"/>
      <point x="576" y="602"/>
      <point x="564" y="600"/>
      <point x="564" y="597" type="curve" smooth="yes"/>
      <point x="564" y="593"/>
      <point x="582" y="589"/>
      <point x="595" y="588" type="curve" smooth="yes"/>
      <point x="635" y="586"/>
      <point x="655" y="575"/>
      <point x="654" y="552" type="curve" smooth="yes"/>
      <point x="654" y="543"/>
      <point x="649" y="531"/>
      <point x="640" y="517" type="curve" smooth="yes"/>
      <point x="609" y="464"/>
      <point x="574" y="405"/>
      <point x="545" y="362" type="curve" smooth="yes"/>
      <point x="527" y="336"/>
      <point x="518" y="315"/>
      <point x="510" y="315" type="curve" smooth="yes"/>
      <point x="504" y="315"/>
      <point x="496" y="326"/>
      <point x="482" y="350" type="curve" smooth="yes"/>
      <point x="368" y="543" type="line" smooth="yes"/>
      <point x="361" y="554"/>
      <point x="354" y="563"/>
      <point x="354" y="571" type="curve" smooth="yes"/>
      <point x="354" y="582"/>
      <point x="374" y="586"/>
      <point x="402" y="587" type="curve" smooth="yes"/>
      <point x="424" y="589"/>
      <point x="435" y="592"/>
      <point x="435" y="596" type="curve" smooth="yes"/>
      <point x="435" y="600"/>
      <point x="414" y="601"/>
      <point x="385" y="601" type="curve" smooth="yes"/>
      <point x="350" y="601"/>
      <point x="302" y="600"/>
      <point x="249" y="600" type="curve" smooth="yes"/>
      <point x="171" y="600"/>
      <point x="101" y="601"/>
      <point x="50" y="601" type="curve" smooth="yes"/>
      <point x="21" y="601"/>
      <point x="0" y="600"/>
      <point x="0" y="597" type="curve" smooth="yes"/>
      <point x="0" y="592"/>
      <point x="11" y="593"/>
      <point x="34" y="587" type="curve" smooth="yes"/>
      <point x="62" y="579"/>
      <point x="80" y="548"/>
      <point x="94" y="527" type="curve" smooth="yes"/>
      <point x="239" y="304" type="line"/>
      <point x="244" y="296"/>
      <point x="264" y="261"/>
      <point x="264" y="236" type="curve" smooth="yes"/>
      <point x="264" y="54" type="line" smooth="yes"/>
      <point x="264" y="23"/>
      <point x="236" y="12"/>
      <point x="186" y="8" type="curve" smooth="yes"/>
      <point x="163" y="6"/>
      <point x="153" y="4"/>
      <point x="153" y="0" type="curve" smooth="yes"/>
      <point x="153" y="-4"/>
      <point x="172" y="-5"/>
    </contour>
  </outline>
</glyph>
<glyph name="a" format="1">
  <advance width="613"/>
  <unicode hex="0061"/>
  <outline>
    <contour>
      <point x="154" y="-14" type="curve" smooth="yes"/>
      <point x="217" y="-14"/>
      <point x="283" y="10"/>
      <point x="336" y="53" type="curve"/>
      <point x="339" y="53" type="line"/>
      <point x="364" y="9"/>
      <point x="414" y="-14"/>
      <point x="469" y="-14" type="curve" smooth="yes"/>
      <point x="500" y="-14"/>
      <point x="557" y="4"/>
      <point x="595" y="32" type="curve" smooth="yes"/>
      <point x="605" y="37"/>
      <point x="612" y="44"/>
      <point x="612" y="49" type="curve" smooth="yes"/>
      <point x="612" y="56"/>
      <point x="611" y="59"/>
      <point x="606" y="59" type="curve" smooth="yes"/>
      <point x="600" y="59"/>
      <point x="596" y="52"/>
      <point x="591" y="47" type="curve" smooth="yes"/>
      <point x="581" y="37"/>
      <point x="569" y="28"/>
      <point x="556" y="28" type="curve" smooth="yes"/>
      <point x="530" y="28"/>
      <point x="518" y="47"/>
      <point x="519" y="80" type="curve" smooth="yes"/>
      <point x="523" y="318" type="line" smooth="yes"/>
      <point x="526" y="366"/>
      <point x="463" y="401"/>
      <point x="378" y="401" type="curve" smooth="yes"/>
      <point x="306" y="401"/>
      <point x="188" y="368"/>
      <point x="110" y="327" type="curve" smooth="yes"/>
      <point x="66" y="305"/>
      <point x="40" y="278"/>
      <point x="40" y="257" type="curve" smooth="yes"/>
      <point x="40" y="252"/>
      <point x="49" y="248"/>
      <point x="64" y="248" type="curve" smooth="yes"/>
      <point x="109" y="248"/>
      <point x="211" y="273"/>
      <point x="211" y="283" type="curve" smooth="yes"/>
      <point x="211" y="288"/>
      <point x="210" y="296"/>
      <point x="210" y="301" type="curve" smooth="yes"/>
      <point x="210" y="321"/>
      <point x="213" y="336"/>
      <point x="222" y="346" type="curve" smooth="yes"/>
      <point x="232" y="359"/>
      <point x="251" y="368"/>
      <point x="275" y="368" type="curve" smooth="yes"/>
      <point x="313" y="368"/>
      <point x="335" y="340"/>
      <point x="334" y="303" type="curve" smooth="yes"/>
      <point x="332" y="231" type="line" smooth="yes"/>
      <point x="331" y="209"/>
      <point x="330" y="207"/>
      <point x="300" y="199" type="curve" smooth="yes"/>
      <point x="142" y="154" type="line" smooth="yes"/>
      <point x="69" y="134"/>
      <point x="37" y="114"/>
      <point x="37" y="71" type="curve" smooth="yes"/>
      <point x="37" y="35"/>
      <point x="101" y="-14"/>
    </contour>
    <contour>
      <point x="258" y="18" type="curve" smooth="yes"/>
      <point x="234" y="18"/>
      <point x="209" y="46"/>
      <point x="209" y="88" type="curve" smooth="yes"/>
      <point x="209" y="120"/>
      <point x="231" y="150"/>
      <point x="303" y="183" type="curve" smooth="yes"/>
      <point x="314" y="187"/>
      <point x="320" y="188"/>
      <point x="323" y="188" type="curve" smooth="yes"/>
      <point x="331" y="188"/>
      <point x="333" y="180"/>
      <point x="332" y="162" type="curve" smooth="yes"/>
      <point x="330" y="98" type="line" smooth="yes"/>
      <point x="329" y="68"/>
      <point x="325" y="56"/>
      <point x="318" y="47" type="curve" smooth="yes"/>
      <point x="304" y="30"/>
      <point x="284" y="18"/>
    </contour>
  </outline>
</glyph>
<glyph name="d" format="1">
  <advance width="739"/>
  <unicode hex="0064"/>
  <outline>
    <contour>
      <point x="472" y="-19" type="curve" smooth="yes"/>
      <point x="479" y="-19"/>
      <point x="481" y="-19"/>
      <point x="502" y="-13" type="curve" smooth="yes"/>
      <point x="591" y="7"/>
      <point x="653" y="16"/>
      <point x="723" y="21" type="curve" smooth="yes"/>
      <point x="730" y="21"/>
      <point x="737" y="25"/>
      <point x="737" y="30" type="curve" smooth="yes"/>
      <point x="737" y="34"/>
      <point x="732" y="34"/>
      <point x="719" y="33" type="curve" smooth="yes"/>
      <point x="702" y="33"/>
      <point x="683" y="33"/>
      <point x="676" y="33" type="curve" smooth="yes"/>
      <point x="660" y="33"/>
      <point x="655" y="46"/>
      <point x="655" y="79" type="curve" smooth="yes"/>
      <point x="655" y="512" type="line" smooth="yes"/>
      <point x="655" y="602"/>
      <point x="662" y="636"/>
      <point x="662" y="648" type="curve"/>
      <point x="661" y="652"/>
      <point x="659" y="654"/>
      <point x="655" y="654" type="curve" smooth="yes"/>
      <point x="649" y="654"/>
      <point x="640" y="653"/>
      <point x="630" y="651" type="curve" smooth="yes"/>
      <point x="594" y="643"/>
      <point x="535" y="637"/>
      <point x="423" y="618" type="curve" smooth="yes"/>
      <point x="411" y="616"/>
      <point x="408" y="614"/>
      <point x="408" y="612" type="curve" smooth="yes"/>
      <point x="408" y="609"/>
      <point x="411" y="607"/>
      <point x="417" y="606" type="curve" smooth="yes"/>
      <point x="453" y="605"/>
      <point x="467" y="598"/>
      <point x="467" y="562" type="curve" smooth="yes"/>
      <point x="467" y="397" type="line" smooth="yes"/>
      <point x="467" y="390"/>
      <point x="461" y="388"/>
      <point x="457" y="388" type="curve" smooth="yes"/>
      <point x="453" y="388"/>
      <point x="448" y="389"/>
      <point x="439" y="391" type="curve" smooth="yes"/>
      <point x="419" y="396"/>
      <point x="378" y="401"/>
      <point x="341" y="401" type="curve" smooth="yes"/>
      <point x="151" y="401"/>
      <point x="35" y="297"/>
      <point x="35" y="184" type="curve" smooth="yes"/>
      <point x="35" y="85"/>
      <point x="132" y="-15"/>
      <point x="287" y="-15" type="curve" smooth="yes"/>
      <point x="377" y="-15"/>
      <point x="438" y="24"/>
      <point x="465" y="54" type="curve"/>
      <point x="466" y="41" type="line" smooth="yes"/>
      <point x="467" y="26"/>
      <point x="461" y="1"/>
      <point x="461" y="-11" type="curve" smooth="yes"/>
      <point x="461" y="-13"/>
      <point x="469" y="-19"/>
    </contour>
    <contour>
      <point x="371" y="17" type="curve" smooth="yes"/>
      <point x="327" y="17"/>
      <point x="221" y="39"/>
      <point x="221" y="203" type="curve" smooth="yes"/>
      <point x="221" y="347"/>
      <point x="298" y="386"/>
      <point x="344" y="386" type="curve" smooth="yes"/>
      <point x="426" y="386"/>
      <point x="467" y="358"/>
      <point x="467" y="296" type="curve" smooth="yes"/>
      <point x="466" y="67" type="line"/>
      <point x="440" y="37"/>
      <point x="406" y="17"/>
    </contour>
  </outline>
</glyph>
<glyph name="e" format="1">
  <advance width="579"/>
  <unicode hex="0065"/>
  <outline>
    <contour>
      <point x="331" y="-15" type="curve" smooth="yes"/>
      <point x="411" y="-15"/>
      <point x="490" y="16"/>
      <point x="535" y="67" type="curve" smooth="yes"/>
      <point x="547" y="79"/>
      <point x="554" y="85"/>
      <point x="554" y="91" type="curve" smooth="yes"/>
      <point x="554" y="94"/>
      <point x="551" y="98"/>
      <point x="545" y="98" type="curve" smooth="yes"/>
      <point x="540" y="98"/>
      <point x="537" y="96"/>
      <point x="529" y="90" type="curve" smooth="yes"/>
      <point x="493" y="61"/>
      <point x="449" y="46"/>
      <point x="395" y="46" type="curve" smooth="yes"/>
      <point x="287" y="46"/>
      <point x="212" y="118"/>
      <point x="212" y="213" type="curve" smooth="yes"/>
      <point x="212" y="240"/>
      <point x="218" y="248"/>
      <point x="237" y="248" type="curve" smooth="yes"/>
      <point x="504" y="248" type="line" smooth="yes"/>
      <point x="535" y="248"/>
      <point x="549" y="259"/>
      <point x="549" y="281" type="curve" smooth="yes"/>
      <point x="549" y="352"/>
      <point x="462" y="401"/>
      <point x="341" y="401" type="curve" smooth="yes"/>
      <point x="172" y="401"/>
      <point x="30" y="308"/>
      <point x="30" y="197" type="curve" smooth="yes"/>
      <point x="30" y="70"/>
      <point x="148" y="-15"/>
    </contour>
    <contour>
      <point x="239" y="263" type="line" smooth="yes"/>
      <point x="231" y="263"/>
      <point x="227" y="266"/>
      <point x="227" y="275" type="curve" smooth="yes"/>
      <point x="227" y="330"/>
      <point x="279" y="388"/>
      <point x="326" y="388" type="curve" smooth="yes"/>
      <point x="373" y="388"/>
      <point x="412" y="349"/>
      <point x="412" y="297" type="curve" smooth="yes"/>
      <point x="412" y="279"/>
      <point x="410" y="270"/>
      <point x="404" y="269" type="curve" smooth="yes"/>
      <point x="382" y="264"/>
      <point x="362" y="263"/>
      <point x="330" y="263" type="curve" smooth="yes"/>
    </contour>
  </outline>
</glyph>
<glyph name="f" format="1">
  <advance width="436"/>
  <unicode hex="0066"/>
  <outline>
    <contour>
      <point x="54" y="-3" type="curve" smooth="yes"/>
      <point x="115" y="-3"/>
      <point x="128" y="2"/>
      <point x="181" y="2" type="curve" smooth="yes"/>
      <point x="235" y="2"/>
      <point x="276" y="-3"/>
      <point x="337" y="-3" type="curve" smooth="yes"/>
      <point x="357" y="-3"/>
      <point x="367" y="-2"/>
      <point x="367" y="2" type="curve" smooth="yes"/>
      <point x="367" y="7"/>
      <point x="358" y="9"/>
      <point x="344" y="9" type="curve" smooth="yes"/>
      <point x="290" y="15"/>
      <point x="278" y="20"/>
      <point x="278" y="42" type="curve" smooth="yes"/>
      <point x="278" y="362" type="line" smooth="yes"/>
      <point x="278" y="364"/>
      <point x="281" y="367"/>
      <point x="297" y="367" type="curve" smooth="yes"/>
      <point x="412" y="367" type="line" smooth="yes"/>
      <point x="415" y="367"/>
      <point x="419" y="368"/>
      <point x="421" y="370" type="curve" smooth="yes"/>
      <point x="424" y="373"/>
      <point x="427" y="377"/>
      <point x="427" y="381" type="curve" smooth="yes"/>
      <point x="427" y="383"/>
      <point x="421" y="387"/>
      <point x="414" y="387" type="curve" smooth="yes"/>
      <point x="289" y="387" type="line" smooth="yes"/>
      <point x="283" y="387"/>
      <point x="278" y="388"/>
      <point x="278" y="396" type="curve" smooth="yes"/>
      <point x="278" y="496" type="line" smooth="yes"/>
      <point x="278" y="581"/>
      <point x="326" y="630"/>
      <point x="378" y="630" type="curve" smooth="yes"/>
      <point x="419" y="630"/>
      <point x="445" y="612"/>
      <point x="470" y="578" type="curve" smooth="yes"/>
      <point x="480" y="564"/>
      <point x="492" y="555"/>
      <point x="504" y="555" type="curve" smooth="yes"/>
      <point x="522" y="555"/>
      <point x="538" y="568"/>
      <point x="538" y="595" type="curve" smooth="yes"/>
      <point x="538" y="629"/>
      <point x="488" y="655"/>
      <point x="377" y="655" type="curve" smooth="yes"/>
      <point x="261" y="655"/>
      <point x="90" y="606"/>
      <point x="90" y="443" type="curve" smooth="yes"/>
      <point x="90" y="393" type="line"/>
      <point x="70" y="389"/>
      <point x="55" y="385"/>
      <point x="31" y="380" type="curve" smooth="yes"/>
      <point x="29" y="379"/>
      <point x="24" y="379"/>
      <point x="24" y="377" type="curve" smooth="yes"/>
      <point x="24" y="374"/>
      <point x="34" y="367"/>
      <point x="38" y="367" type="curve"/>
      <point x="59" y="367"/>
      <point x="77" y="367"/>
      <point x="90" y="367" type="curve"/>
      <point x="90" y="42" type="line" smooth="yes"/>
      <point x="90" y="20"/>
      <point x="78" y="16"/>
      <point x="47" y="9" type="curve" smooth="yes"/>
      <point x="33" y="8"/>
      <point x="24" y="7"/>
      <point x="24" y="2" type="curve" smooth="yes"/>
      <point x="24" y="-2"/>
      <point x="35" y="-3"/>
    </contour>
  </outline>
</glyph>
<glyph name="g" format="1">
  <advance width="662"/>
  <unicode hex="0067"/>
  <outline>
    <contour>
      <point x="302" y="-213" type="curve" smooth="yes"/>
      <point x="473" y="-213"/>
      <point x="655" y="-126"/>
      <point x="655" y="-45" type="curve" smooth="yes"/>
      <point x="655" y="24"/>
      <point x="573" y="45"/>
      <point x="360" y="57" type="curve" smooth="yes"/>
      <point x="244" y="64"/>
      <point x="168" y="74"/>
      <point x="168" y="87" type="curve" smooth="yes"/>
      <point x="168" y="97"/>
      <point x="187" y="110"/>
      <point x="210" y="118" type="curve"/>
      <point x="177" y="131" type="line"/>
      <point x="161" y="117"/>
      <point x="155" y="115"/>
      <point x="88" y="87" type="curve" smooth="yes"/>
      <point x="65" y="77"/>
      <point x="55" y="68"/>
      <point x="55" y="58" type="curve" smooth="yes"/>
      <point x="55" y="-17"/>
      <point x="102" y="-37"/>
      <point x="309" y="-58" type="curve" smooth="yes"/>
      <point x="438" y="-69"/>
      <point x="476" y="-78"/>
      <point x="476" y="-101" type="curve" smooth="yes"/>
      <point x="476" y="-131"/>
      <point x="453" y="-157"/>
      <point x="417" y="-172" type="curve" smooth="yes"/>
      <point x="390" y="-183"/>
      <point x="356" y="-189"/>
      <point x="311" y="-189" type="curve" smooth="yes"/>
      <point x="234" y="-189"/>
      <point x="174" y="-163"/>
      <point x="174" y="-121" type="curve" smooth="yes"/>
      <point x="174" y="-78"/>
      <point x="194" y="-55"/>
      <point x="237" y="-27" type="curve"/>
      <point x="261" y="-5" type="line"/>
      <point x="192" y="-27"/>
      <point x="120" y="-47"/>
      <point x="81" y="-59" type="curve" smooth="yes"/>
      <point x="31" y="-73"/>
      <point x="11" y="-91"/>
      <point x="11" y="-118" type="curve" smooth="yes"/>
      <point x="11" y="-177"/>
      <point x="122" y="-213"/>
    </contour>
    <contour>
      <point x="326" y="107" type="curve" smooth="yes"/>
      <point x="270" y="107"/>
      <point x="230" y="159"/>
      <point x="230" y="255" type="curve" smooth="yes"/>
      <point x="230" y="334"/>
      <point x="272" y="391"/>
      <point x="319" y="391" type="curve" smooth="yes"/>
      <point x="373" y="391"/>
      <point x="414" y="355"/>
      <point x="414" y="262" type="curve" smooth="yes"/>
      <point x="414" y="165"/>
      <point x="382" y="107"/>
    </contour>
    <contour>
      <point x="300" y="93" type="curve" smooth="yes"/>
      <point x="499" y="93"/>
      <point x="575" y="173"/>
      <point x="575" y="279" type="curve" smooth="yes"/>
      <point x="575" y="307"/>
      <point x="578" y="328"/>
      <point x="581" y="340" type="curve" smooth="yes"/>
      <point x="584" y="348"/>
      <point x="595" y="352"/>
      <point x="615" y="352" type="curve" smooth="yes"/>
      <point x="644" y="352" type="line"/>
      <point x="646" y="352"/>
      <point x="650" y="353"/>
      <point x="653" y="353" type="curve" smooth="yes"/>
      <point x="660" y="353"/>
      <point x="664" y="361"/>
      <point x="664" y="365" type="curve" smooth="yes"/>
      <point x="664" y="369"/>
      <point x="655" y="373"/>
      <point x="644" y="373" type="curve" smooth="yes"/>
      <point x="629" y="373"/>
      <point x="585" y="371"/>
      <point x="561" y="371" type="curve" smooth="yes"/>
      <point x="530" y="371"/>
      <point x="507" y="372"/>
      <point x="459" y="381" type="curve" smooth="yes"/>
      <point x="416" y="389"/>
      <point x="377" y="402"/>
      <point x="318" y="402" type="curve" smooth="yes"/>
      <point x="179" y="402"/>
      <point x="53" y="337"/>
      <point x="53" y="245" type="curve" smooth="yes"/>
      <point x="53" y="161"/>
      <point x="173" y="93"/>
    </contour>
  </outline>
</glyph>
<glyph name="h" format="1">
  <advance width="754"/>
  <unicode hex="0068"/>
  <outline>
    <contour>
      <point x="51" y="-3" type="curve" smooth="yes"/>
      <point x="115" y="-3"/>
      <point x="124" y="-1"/>
      <point x="180" y="-1" type="curve" smooth="yes"/>
      <point x="236" y="-1"/>
      <point x="238" y="-3"/>
      <point x="302" y="-3" type="curve" smooth="yes"/>
      <point x="326" y="-3"/>
      <point x="334" y="-2"/>
      <point x="334" y="3" type="curve" smooth="yes"/>
      <point x="334" y="6"/>
      <point x="326" y="8"/>
      <point x="312" y="9" type="curve" smooth="yes"/>
      <point x="292" y="13"/>
      <point x="272" y="17"/>
      <point x="273" y="29" type="curve" smooth="yes"/>
      <point x="273" y="269" type="line" smooth="yes"/>
      <point x="273" y="310"/>
      <point x="279" y="324"/>
      <point x="300" y="341" type="curve" smooth="yes"/>
      <point x="319" y="356"/>
      <point x="358" y="363"/>
      <point x="383" y="363" type="curve" smooth="yes"/>
      <point x="426" y="363"/>
      <point x="476" y="323"/>
      <point x="476" y="273" type="curve" smooth="yes"/>
      <point x="476" y="31" type="line" smooth="yes"/>
      <point x="476" y="19"/>
      <point x="457" y="13"/>
      <point x="437" y="9" type="curve" smooth="yes"/>
      <point x="422" y="8"/>
      <point x="414" y="6"/>
      <point x="414" y="3" type="curve" smooth="yes"/>
      <point x="414" y="-2"/>
      <point x="424" y="-3"/>
      <point x="447" y="-3" type="curve" smooth="yes"/>
      <point x="511" y="-3"/>
      <point x="516" y="-1"/>
      <point x="573" y="-1" type="curve" smooth="yes"/>
      <point x="629" y="-1"/>
      <point x="634" y="-3"/>
      <point x="699" y="-3" type="curve" smooth="yes"/>
      <point x="722" y="-3"/>
      <point x="731" y="-2"/>
      <point x="731" y="3" type="curve" smooth="yes"/>
      <point x="731" y="6"/>
      <point x="722" y="8"/>
      <point x="708" y="9" type="curve" smooth="yes"/>
      <point x="688" y="13"/>
      <point x="667" y="19"/>
      <point x="667" y="31" type="curve" smooth="yes"/>
      <point x="667" y="265" type="line" smooth="yes"/>
      <point x="667" y="343"/>
      <point x="594" y="401"/>
      <point x="497" y="401" type="curve" smooth="yes"/>
      <point x="387" y="401"/>
      <point x="286" y="350"/>
      <point x="250" y="334" type="curve"/>
      <point x="283" y="333" type="line"/>
      <point x="275" y="346"/>
      <point x="273" y="350"/>
      <point x="273" y="375" type="curve" smooth="yes"/>
      <point x="273" y="511" type="line" smooth="yes"/>
      <point x="273" y="618"/>
      <point x="282" y="635"/>
      <point x="282" y="647" type="curve" smooth="yes"/>
      <point x="282" y="651"/>
      <point x="279" y="654"/>
      <point x="275" y="654" type="curve" smooth="yes"/>
      <point x="271" y="654"/>
      <point x="268" y="653"/>
      <point x="263" y="652" type="curve" smooth="yes"/>
      <point x="202" y="636"/>
      <point x="102" y="622"/>
      <point x="48" y="618" type="curve" smooth="yes"/>
      <point x="36" y="618"/>
      <point x="32" y="615"/>
      <point x="32" y="612" type="curve" smooth="yes"/>
      <point x="32" y="609"/>
      <point x="35" y="606"/>
      <point x="41" y="606" type="curve" smooth="yes"/>
      <point x="75" y="603"/>
      <point x="85" y="588"/>
      <point x="85" y="571" type="curve" smooth="yes"/>
      <point x="85" y="29" type="line" smooth="yes"/>
      <point x="86" y="17"/>
      <point x="62" y="13"/>
      <point x="42" y="9" type="curve" smooth="yes"/>
      <point x="25" y="8"/>
      <point x="19" y="6"/>
      <point x="19" y="3" type="curve" smooth="yes"/>
      <point x="19" y="-2"/>
      <point x="32" y="-3"/>
    </contour>
  </outline>
</glyph>
<glyph name="i" format="1">
  <advance width="363"/>
  <unicode hex="0069"/>
  <outline>
    <contour>
      <point x="56" y="-3" type="curve" smooth="yes"/>
      <point x="117" y="-3"/>
      <point x="129" y="2"/>
      <point x="184" y="2" type="curve" smooth="yes"/>
      <point x="240" y="2"/>
      <point x="252" y="-3"/>
      <point x="313" y="-3" type="curve" smooth="yes"/>
      <point x="333" y="-3"/>
      <point x="344" y="0"/>
      <point x="344" y="3" type="curve" smooth="yes"/>
      <point x="344" y="7"/>
      <point x="332" y="10"/>
      <point x="321" y="11" type="curve" smooth="yes"/>
      <point x="294" y="15"/>
      <point x="278" y="19"/>
      <point x="278" y="36" type="curve" smooth="yes"/>
      <point x="278" y="267" type="line" smooth="yes"/>
      <point x="278" y="312"/>
      <point x="287" y="386"/>
      <point x="287" y="402" type="curve" smooth="yes"/>
      <point x="287" y="405"/>
      <point x="285" y="407"/>
      <point x="281" y="407" type="curve" smooth="yes"/>
      <point x="274" y="407"/>
      <point x="264" y="404"/>
      <point x="254" y="400" type="curve" smooth="yes"/>
      <point x="222" y="383"/>
      <point x="160" y="354"/>
      <point x="53" y="342" type="curve" smooth="yes"/>
      <point x="41" y="340"/>
      <point x="35" y="339"/>
      <point x="35" y="336" type="curve" smooth="yes"/>
      <point x="35" y="332"/>
      <point x="38" y="329"/>
      <point x="45" y="328" type="curve" smooth="yes"/>
      <point x="79" y="324"/>
      <point x="90" y="299"/>
      <point x="90" y="271" type="curve" smooth="yes"/>
      <point x="90" y="36" type="line" smooth="yes"/>
      <point x="90" y="19"/>
      <point x="75" y="15"/>
      <point x="47" y="11" type="curve" smooth="yes"/>
      <point x="36" y="10"/>
      <point x="24" y="7"/>
      <point x="24" y="3" type="curve" smooth="yes"/>
      <point x="24" y="0"/>
      <point x="36" y="-3"/>
    </contour>
    <contour>
      <point x="183" y="483" type="curve" smooth="yes"/>
      <point x="254" y="483"/>
      <point x="293" y="501"/>
      <point x="293" y="533" type="curve" smooth="yes"/>
      <point x="293" y="567"/>
      <point x="254" y="584"/>
      <point x="183" y="584" type="curve" smooth="yes"/>
      <point x="113" y="584"/>
      <point x="74" y="567"/>
      <point x="74" y="533" type="curve" smooth="yes"/>
      <point x="74" y="501"/>
      <point x="113" y="483"/>
    </contour>
  </outline>
</glyph>
<glyph name="j" format="1">
  <advance width="348"/>
  <unicode hex="006A"/>
  <outline>
    <contour>
      <point x="27" y="-206" type="curve" smooth="yes"/>
      <point x="112" y="-206"/>
      <point x="193" y="-139"/>
      <point x="232" y="-71" type="curve" smooth="yes"/>
      <point x="276" y="9"/>
      <point x="278" y="110"/>
      <point x="278" y="172" type="curve" smooth="yes"/>
      <point x="278" y="248" type="line" smooth="yes"/>
      <point x="278" y="293"/>
      <point x="281" y="361"/>
      <point x="285" y="402" type="curve"/>
      <point x="285" y="405"/>
      <point x="282" y="407"/>
      <point x="278" y="407" type="curve" smooth="yes"/>
      <point x="274" y="407"/>
      <point x="264" y="401"/>
      <point x="251" y="396" type="curve" smooth="yes"/>
      <point x="215" y="384"/>
      <point x="159" y="358"/>
      <point x="49" y="341" type="curve" smooth="yes"/>
      <point x="41" y="340"/>
      <point x="35" y="338"/>
      <point x="35" y="335" type="curve" smooth="yes"/>
      <point x="35" y="332"/>
      <point x="38" y="329"/>
      <point x="43" y="329" type="curve" smooth="yes"/>
      <point x="77" y="328"/>
      <point x="89" y="301"/>
      <point x="89" y="274" type="curve" smooth="yes"/>
      <point x="89" y="115" type="line" smooth="yes"/>
      <point x="89" y="46"/>
      <point x="86" y="-90"/>
      <point x="57" y="-151" type="curve" smooth="yes"/>
      <point x="38" y="-191"/>
      <point x="15" y="-155"/>
      <point x="-22" y="-164" type="curve"/>
      <point x="-26" y="-165"/>
      <point x="-39" y="-178"/>
      <point x="-39" y="-191" type="curve" smooth="yes"/>
      <point x="-39" y="-201"/>
      <point x="5" y="-206"/>
    </contour>
    <contour>
      <point x="178" y="484" type="curve" smooth="yes"/>
      <point x="250" y="484"/>
      <point x="289" y="501"/>
      <point x="289" y="534" type="curve" smooth="yes"/>
      <point x="289" y="567"/>
      <point x="250" y="585"/>
      <point x="178" y="585" type="curve" smooth="yes"/>
      <point x="109" y="585"/>
      <point x="70" y="567"/>
      <point x="70" y="534" type="curve" smooth="yes"/>
      <point x="70" y="501"/>
      <point x="109" y="484"/>
    </contour>
  </outline>
</glyph>
<glyph name="k" format="1">
  <advance width="742"/>
  <unicode hex="006B"/>
  <outline>
    <contour>
      <point x="42" y="-3" type="curve" smooth="yes"/>
      <point x="108" y="-3"/>
      <point x="115" y="2"/>
      <point x="174" y="2" type="curve" smooth="yes"/>
      <point x="233" y="2"/>
      <point x="226" y="-3"/>
      <point x="292" y="-3" type="curve" smooth="yes"/>
      <point x="301" y="-3"/>
      <point x="331" y="-3"/>
      <point x="331" y="3" type="curve" smooth="yes"/>
      <point x="331" y="7"/>
      <point x="319" y="9"/>
      <point x="308" y="10" type="curve" smooth="yes"/>
      <point x="284" y="13"/>
      <point x="273" y="15"/>
      <point x="273" y="44" type="curve" smooth="yes"/>
      <point x="272" y="82"/>
      <point x="272" y="101"/>
      <point x="272" y="118" type="curve" smooth="yes"/>
      <point x="272" y="136"/>
      <point x="272" y="175"/>
      <point x="273" y="189" type="curve"/>
      <point x="273" y="193"/>
      <point x="275" y="195"/>
      <point x="278" y="195" type="curve" smooth="yes"/>
      <point x="282" y="195"/>
      <point x="285" y="193"/>
      <point x="288" y="189" type="curve" smooth="yes"/>
      <point x="427" y="41" type="line"/>
      <point x="433" y="35"/>
      <point x="438" y="29"/>
      <point x="438" y="24" type="curve" smooth="yes"/>
      <point x="438" y="15"/>
      <point x="423" y="12"/>
      <point x="388" y="11" type="curve" smooth="yes"/>
      <point x="379" y="11"/>
      <point x="372" y="7"/>
      <point x="372" y="4" type="curve" smooth="yes"/>
      <point x="372" y="2"/>
      <point x="379" y="0"/>
      <point x="403" y="0" type="curve" smooth="yes"/>
      <point x="517" y="0"/>
      <point x="630" y="-3"/>
      <point x="718" y="-3" type="curve" smooth="yes"/>
      <point x="739" y="-3"/>
      <point x="752" y="-2"/>
      <point x="752" y="3" type="curve" smooth="yes"/>
      <point x="752" y="6"/>
      <point x="745" y="8"/>
      <point x="735" y="9" type="curve" smooth="yes"/>
      <point x="717" y="11"/>
      <point x="699" y="21"/>
      <point x="668" y="45" type="curve" smooth="yes"/>
      <point x="646" y="62"/>
      <point x="524" y="199"/>
      <point x="472" y="244" type="curve" smooth="yes"/>
      <point x="470" y="246"/>
      <point x="469" y="248"/>
      <point x="469" y="250" type="curve" smooth="yes"/>
      <point x="469" y="252"/>
      <point x="471" y="256"/>
      <point x="475" y="257" type="curve" smooth="yes"/>
      <point x="524" y="291"/>
      <point x="600" y="329"/>
      <point x="627" y="347" type="curve" smooth="yes"/>
      <point x="651" y="362"/>
      <point x="682" y="372"/>
      <point x="707" y="378" type="curve" smooth="yes"/>
      <point x="721" y="381"/>
      <point x="732" y="384"/>
      <point x="732" y="388" type="curve" smooth="yes"/>
      <point x="732" y="392"/>
      <point x="727" y="393"/>
      <point x="718" y="393" type="curve" smooth="yes"/>
      <point x="696" y="393"/>
      <point x="658" y="388"/>
      <point x="627" y="388" type="curve" smooth="yes"/>
      <point x="551" y="388" type="line" smooth="yes"/>
      <point x="537" y="388"/>
      <point x="529" y="385"/>
      <point x="529" y="382" type="curve" smooth="yes"/>
      <point x="529" y="380"/>
      <point x="532" y="378"/>
      <point x="541" y="378" type="curve" smooth="yes"/>
      <point x="570" y="377"/>
      <point x="584" y="370"/>
      <point x="584" y="358" type="curve" smooth="yes"/>
      <point x="584" y="353"/>
      <point x="579" y="349"/>
      <point x="565" y="344" type="curve" smooth="yes"/>
      <point x="510" y="307"/>
      <point x="425" y="266"/>
      <point x="314" y="217" type="curve" smooth="yes"/>
      <point x="297" y="207"/>
      <point x="286" y="202"/>
      <point x="278" y="202" type="curve" smooth="yes"/>
      <point x="275" y="202"/>
      <point x="273" y="205"/>
      <point x="273" y="211" type="curve" smooth="yes"/>
      <point x="273" y="511" type="line" smooth="yes"/>
      <point x="273" y="596"/>
      <point x="282" y="631"/>
      <point x="282" y="645" type="curve" smooth="yes"/>
      <point x="282" y="651"/>
      <point x="279" y="654"/>
      <point x="271" y="654" type="curve" smooth="yes"/>
      <point x="265" y="654"/>
      <point x="256" y="651"/>
      <point x="247" y="649" type="curve" smooth="yes"/>
      <point x="191" y="633"/>
      <point x="121" y="624"/>
      <point x="39" y="618" type="curve" smooth="yes"/>
      <point x="34" y="617"/>
      <point x="31" y="615"/>
      <point x="31" y="611" type="curve" smooth="yes"/>
      <point x="31" y="607"/>
      <point x="34" y="606"/>
      <point x="40" y="606" type="curve" smooth="yes"/>
      <point x="87" y="602"/>
      <point x="85" y="590"/>
      <point x="85" y="550" type="curve" smooth="yes"/>
      <point x="85" y="39" type="line" smooth="yes"/>
      <point x="85" y="17"/>
      <point x="74" y="13"/>
      <point x="42" y="10" type="curve" smooth="yes"/>
      <point x="31" y="9"/>
      <point x="19" y="7"/>
      <point x="19" y="3" type="curve" smooth="yes"/>
      <point x="19" y="-2"/>
      <point x="27" y="-3"/>
    </contour>
  </outline>
</glyph>
<glyph name="o" format="1">
  <advance width="717"/>
  <unicode hex="006F"/>
  <outline>
    <contour>
      <point x="337" y="-14" type="curve" smooth="yes"/>
      <point x="551" y="-14"/>
      <point x="682" y="71"/>
      <point x="682" y="206" type="curve" smooth="yes"/>
      <point x="682" y="318"/>
      <point x="551" y="401"/>
      <point x="368" y="401" type="curve" smooth="yes"/>
      <point x="183" y="401"/>
      <point x="35" y="301"/>
      <point x="35" y="181" type="curve" smooth="yes"/>
      <point x="35" y="64"/>
      <point x="153" y="-14"/>
    </contour>
    <contour>
      <point x="366" y="0" type="curve" smooth="yes"/>
      <point x="289" y="0"/>
      <point x="228" y="90"/>
      <point x="228" y="204" type="curve" smooth="yes"/>
      <point x="228" y="326"/>
      <point x="267" y="386"/>
      <point x="348" y="386" type="curve" smooth="yes"/>
      <point x="426" y="386"/>
      <point x="489" y="298"/>
      <point x="489" y="182" type="curve" smooth="yes"/>
      <point x="489" y="56"/>
      <point x="451" y="0"/>
    </contour>
  </outline>
</glyph>
<glyph name="p" format="1">
  <advance width="749"/>
  <unicode hex="0070"/>
  <outline>
    <contour>
      <point x="52" y="-205" type="curve" smooth="yes"/>
      <point x="112" y="-205"/>
      <point x="121" y="-203"/>
      <point x="175" y="-203" type="curve" smooth="yes"/>
      <point x="229" y="-203"/>
      <point x="260" y="-205"/>
      <point x="320" y="-205" type="curve" smooth="yes"/>
      <point x="333" y="-205"/>
      <point x="354" y="-205"/>
      <point x="354" y="-201" type="curve" smooth="yes"/>
      <point x="354" y="-196"/>
      <point x="342" y="-194"/>
      <point x="331" y="-192" type="curve"/>
      <point x="311" y="-189"/>
      <point x="273" y="-187"/>
      <point x="273" y="-173" type="curve" smooth="yes"/>
      <point x="273" y="-32" type="line" smooth="yes"/>
      <point x="273" y="-26"/>
      <point x="274" y="25"/>
      <point x="278" y="25" type="curve"/>
      <point x="304" y="0"/>
      <point x="374" y="-14"/>
      <point x="412" y="-14" type="curve" smooth="yes"/>
      <point x="581" y="-14"/>
      <point x="714" y="103"/>
      <point x="714" y="218" type="curve" smooth="yes"/>
      <point x="714" y="309"/>
      <point x="632" y="401"/>
      <point x="494" y="402" type="curve" smooth="yes"/>
      <point x="409" y="402"/>
      <point x="302" y="365"/>
      <point x="276" y="349" type="curve"/>
      <point x="275" y="356"/>
      <point x="275" y="359"/>
      <point x="275" y="361" type="curve" smooth="yes"/>
      <point x="275" y="370"/>
      <point x="280" y="396"/>
      <point x="280" y="406" type="curve" smooth="yes"/>
      <point x="280" y="409"/>
      <point x="277" y="414"/>
      <point x="274" y="414" type="curve" smooth="yes"/>
      <point x="273" y="414"/>
      <point x="273" y="413"/>
      <point x="272" y="413" type="curve"/>
      <point x="209" y="400"/>
      <point x="145" y="386"/>
      <point x="45" y="373" type="curve" smooth="yes"/>
      <point x="37" y="372"/>
      <point x="31" y="370"/>
      <point x="31" y="365" type="curve" smooth="yes"/>
      <point x="31" y="362"/>
      <point x="34" y="359"/>
      <point x="39" y="359" type="curve" smooth="yes"/>
      <point x="76" y="355"/>
      <point x="85" y="330"/>
      <point x="85" y="303" type="curve" smooth="yes"/>
      <point x="85" y="-173" type="line" smooth="yes"/>
      <point x="85" y="-187"/>
      <point x="62" y="-189"/>
      <point x="42" y="-192" type="curve"/>
      <point x="31" y="-194"/>
      <point x="19" y="-196"/>
      <point x="19" y="-201" type="curve" smooth="yes"/>
      <point x="19" y="-205"/>
      <point x="41" y="-205"/>
    </contour>
    <contour>
      <point x="392" y="1" type="curve" smooth="yes"/>
      <point x="321" y="1"/>
      <point x="273" y="30"/>
      <point x="273" y="157" type="curve" smooth="yes"/>
      <point x="273" y="182"/>
      <point x="276" y="255"/>
      <point x="276" y="321" type="curve" smooth="yes"/>
      <point x="276" y="335"/>
      <point x="338" y="370"/>
      <point x="386" y="370" type="curve" smooth="yes"/>
      <point x="463" y="370"/>
      <point x="522" y="306"/>
      <point x="522" y="185" type="curve" smooth="yes"/>
      <point x="522" y="52"/>
      <point x="463" y="1"/>
    </contour>
  </outline>
</glyph>
<glyph name="q" format="1">
  <advance width="751"/>
  <unicode hex="0071"/>
  <outline>
    <contour>
      <point x="453" y="-205" type="curve" smooth="yes"/>
      <point x="515" y="-205"/>
      <point x="525" y="-200"/>
      <point x="579" y="-200" type="curve" smooth="yes"/>
      <point x="636" y="-200"/>
      <point x="658" y="-205"/>
      <point x="720" y="-205" type="curve" smooth="yes"/>
      <point x="733" y="-205"/>
      <point x="751" y="-205"/>
      <point x="751" y="-202" type="curve" smooth="yes"/>
      <point x="751" y="-197"/>
      <point x="739" y="-196"/>
      <point x="728" y="-194" type="curve"/>
      <point x="708" y="-191"/>
      <point x="676" y="-190"/>
      <point x="676" y="-174" type="curve" smooth="yes"/>
      <point x="676" y="286" type="line" smooth="yes"/>
      <point x="676" y="340"/>
      <point x="694" y="386"/>
      <point x="694" y="399" type="curve" smooth="yes"/>
      <point x="694" y="404"/>
      <point x="685" y="407"/>
      <point x="677" y="407" type="curve" smooth="yes"/>
      <point x="673" y="407"/>
      <point x="669" y="405"/>
      <point x="666" y="400" type="curve"/>
      <point x="657" y="389"/>
      <point x="648" y="379"/>
      <point x="629" y="379" type="curve" smooth="yes"/>
      <point x="605" y="379"/>
      <point x="527" y="401"/>
      <point x="421" y="401" type="curve" smooth="yes"/>
      <point x="191" y="401"/>
      <point x="35" y="309"/>
      <point x="35" y="173" type="curve" smooth="yes"/>
      <point x="35" y="52"/>
      <point x="162" y="-14"/>
      <point x="300" y="-14" type="curve" smooth="yes"/>
      <point x="370" y="-14"/>
      <point x="440" y="24"/>
      <point x="469" y="43" type="curve" smooth="yes"/>
      <point x="472" y="46"/>
      <point x="476" y="45"/>
      <point x="480" y="45" type="curve" smooth="yes"/>
      <point x="486" y="45"/>
      <point x="488" y="38"/>
      <point x="488" y="16" type="curve" smooth="yes"/>
      <point x="488" y="-176" type="line" smooth="yes"/>
      <point x="488" y="-190"/>
      <point x="465" y="-191"/>
      <point x="445" y="-194" type="curve"/>
      <point x="434" y="-196"/>
      <point x="422" y="-197"/>
      <point x="422" y="-202" type="curve" smooth="yes"/>
      <point x="422" y="-205"/>
      <point x="442" y="-205"/>
    </contour>
    <contour>
      <point x="383" y="21" type="curve" smooth="yes"/>
      <point x="311" y="21"/>
      <point x="228" y="69"/>
      <point x="228" y="199" type="curve" smooth="yes"/>
      <point x="228" y="322"/>
      <point x="296" y="389"/>
      <point x="368" y="389" type="curve" smooth="yes"/>
      <point x="446" y="389"/>
      <point x="485" y="360"/>
      <point x="488" y="276" type="curve" smooth="yes"/>
      <point x="489" y="248"/>
      <point x="489" y="104"/>
      <point x="489" y="65" type="curve"/>
      <point x="472" y="44"/>
      <point x="427" y="21"/>
    </contour>
  </outline>
</glyph>
<glyph name="r" format="1">
  <advance width="452"/>
  <unicode hex="0072"/>
  <outline>
    <contour>
      <point x="60" y="-3" type="curve" smooth="yes"/>
      <point x="123" y="-3"/>
      <point x="132" y="2"/>
      <point x="187" y="2" type="curve" smooth="yes"/>
      <point x="242" y="2"/>
      <point x="261" y="-3"/>
      <point x="324" y="-3" type="curve" smooth="yes"/>
      <point x="345" y="-3"/>
      <point x="355" y="-1"/>
      <point x="355" y="2" type="curve" smooth="yes"/>
      <point x="355" y="6"/>
      <point x="346" y="7"/>
      <point x="332" y="9" type="curve" smooth="yes"/>
      <point x="299" y="13"/>
      <point x="279" y="16"/>
      <point x="279" y="30" type="curve" smooth="yes"/>
      <point x="279" y="268" type="line" smooth="yes"/>
      <point x="279" y="327"/>
      <point x="318" y="346"/>
      <point x="348" y="346" type="curve" smooth="yes"/>
      <point x="357" y="346"/>
      <point x="369" y="336"/>
      <point x="380" y="327" type="curve" smooth="yes"/>
      <point x="391" y="317"/>
      <point x="401" y="306"/>
      <point x="408" y="306" type="curve" smooth="yes"/>
      <point x="428" y="306"/>
      <point x="447" y="338"/>
      <point x="447" y="358" type="curve" smooth="yes"/>
      <point x="447" y="376"/>
      <point x="427" y="390"/>
      <point x="399" y="390" type="curve" smooth="yes"/>
      <point x="360" y="390"/>
      <point x="316" y="361"/>
      <point x="284" y="322" type="curve"/>
      <point x="283" y="322"/>
      <point x="282" y="323"/>
      <point x="282" y="324" type="curve"/>
      <point x="284" y="356"/>
      <point x="285" y="392"/>
      <point x="285" y="399" type="curve"/>
      <point x="285" y="403"/>
      <point x="283" y="406"/>
      <point x="280" y="406" type="curve" smooth="yes"/>
      <point x="274" y="406"/>
      <point x="264" y="403"/>
      <point x="249" y="397" type="curve" smooth="yes"/>
      <point x="205" y="376"/>
      <point x="123" y="351"/>
      <point x="56" y="345" type="curve" smooth="yes"/>
      <point x="48" y="344"/>
      <point x="38" y="342"/>
      <point x="38" y="339" type="curve" smooth="yes"/>
      <point x="38" y="336"/>
      <point x="43" y="334"/>
      <point x="48" y="334" type="curve" smooth="yes"/>
      <point x="81" y="327"/>
      <point x="90" y="299"/>
      <point x="90" y="271" type="curve" smooth="yes"/>
      <point x="90" y="30" type="line" smooth="yes"/>
      <point x="90" y="15"/>
      <point x="77" y="11"/>
      <point x="52" y="9" type="curve" smooth="yes"/>
      <point x="37" y="7"/>
      <point x="29" y="6"/>
      <point x="29" y="2" type="curve" smooth="yes"/>
      <point x="29" y="-1"/>
      <point x="39" y="-3"/>
    </contour>
  </outline>
</glyph>
<glyph name="t" format="1">
  <advance width="432"/>
  <unicode hex="0074"/>
  <outline>
    <contour>
      <point x="245" y="-14" type="curve" smooth="yes"/>
      <point x="338" y="-14"/>
      <point x="424" y="37"/>
      <point x="424" y="50" type="curve" smooth="yes"/>
      <point x="424" y="54"/>
      <point x="425" y="55"/>
      <point x="422" y="55" type="curve" smooth="yes"/>
      <point x="419" y="55"/>
      <point x="417" y="52"/>
      <point x="414" y="50" type="curve" smooth="yes"/>
      <point x="387" y="28"/>
      <point x="369" y="18"/>
      <point x="343" y="18" type="curve" smooth="yes"/>
      <point x="301" y="18"/>
      <point x="273" y="52"/>
      <point x="273" y="110" type="curve" smooth="yes"/>
      <point x="273" y="360" type="line" smooth="yes"/>
      <point x="273" y="370"/>
      <point x="279" y="370"/>
      <point x="313" y="370" type="curve" smooth="yes"/>
      <point x="412" y="370" type="line" smooth="yes"/>
      <point x="417" y="370"/>
      <point x="422" y="375"/>
      <point x="422" y="379" type="curve" smooth="yes"/>
      <point x="422" y="384"/>
      <point x="417" y="387"/>
      <point x="412" y="387" type="curve" smooth="yes"/>
      <point x="298" y="387" type="line" smooth="yes"/>
      <point x="281" y="387"/>
      <point x="272" y="391"/>
      <point x="274" y="406" type="curve" smooth="yes"/>
      <point x="278" y="445" type="line" smooth="yes"/>
      <point x="280" y="459"/>
      <point x="275" y="462"/>
      <point x="259" y="462" type="curve" smooth="yes"/>
      <point x="249" y="462"/>
      <point x="240" y="458"/>
      <point x="225" y="449" type="curve" smooth="yes"/>
      <point x="191" y="417"/>
      <point x="136" y="395"/>
      <point x="56" y="390" type="curve" smooth="yes"/>
      <point x="45" y="389"/>
      <point x="35" y="384"/>
      <point x="35" y="377" type="curve" smooth="yes"/>
      <point x="35" y="370"/>
      <point x="40" y="370"/>
      <point x="47" y="370" type="curve" smooth="yes"/>
      <point x="53" y="370" type="line"/>
      <point x="79" y="370"/>
      <point x="85" y="367"/>
      <point x="85" y="359" type="curve" smooth="yes"/>
      <point x="85" y="105" type="line" smooth="yes"/>
      <point x="85" y="26"/>
      <point x="145" y="-14"/>
    </contour>
  </outline>
</glyph>
<glyph name="w" format="1">
  <advance width="944"/>
  <unicode hex="0077"/>
  <outline>
    <contour>
      <point x="287" y="-23" type="curve" smooth="yes"/>
      <point x="316" y="-23"/>
      <point x="348" y="-20"/>
      <point x="367" y="-16" type="curve"/>
      <point x="463" y="270" type="line" smooth="yes"/>
      <point x="466" y="278"/>
      <point x="468" y="280"/>
      <point x="470" y="280" type="curve" smooth="yes"/>
      <point x="472" y="281"/>
      <point x="475" y="278"/>
      <point x="478" y="273" type="curve" smooth="yes"/>
      <point x="588" y="-16" type="line"/>
      <point x="605" y="-20"/>
      <point x="633" y="-23"/>
      <point x="659" y="-23" type="curve" smooth="yes"/>
      <point x="693" y="-23"/>
      <point x="720" y="-20"/>
      <point x="737" y="-16" type="curve"/>
      <point x="871" y="315" type="line" smooth="yes"/>
      <point x="892" y="366"/>
      <point x="908" y="379"/>
      <point x="932" y="381" type="curve"/>
      <point x="944" y="382"/>
      <point x="953" y="384"/>
      <point x="953" y="388" type="curve" smooth="yes"/>
      <point x="953" y="392"/>
      <point x="941" y="392"/>
      <point x="933" y="392" type="curve" smooth="yes"/>
      <point x="911" y="392"/>
      <point x="908" y="390"/>
      <point x="871" y="390" type="curve" smooth="yes"/>
      <point x="835" y="390"/>
      <point x="826" y="392"/>
      <point x="797" y="392" type="curve" smooth="yes"/>
      <point x="790" y="392"/>
      <point x="777" y="392"/>
      <point x="777" y="388" type="curve" smooth="yes"/>
      <point x="777" y="384"/>
      <point x="790" y="382"/>
      <point x="803" y="381" type="curve" smooth="yes"/>
      <point x="839" y="378"/>
      <point x="857" y="365"/>
      <point x="857" y="342" type="curve" smooth="yes"/>
      <point x="857" y="333"/>
      <point x="853" y="324"/>
      <point x="845" y="308" type="curve" smooth="yes"/>
      <point x="764" y="79" type="line" smooth="yes"/>
      <point x="760" y="72"/>
      <point x="757" y="69"/>
      <point x="754" y="69" type="curve" smooth="yes"/>
      <point x="752" y="69"/>
      <point x="749" y="73"/>
      <point x="746" y="80" type="curve" smooth="yes"/>
      <point x="669" y="302" type="line" smooth="yes"/>
      <point x="663" y="317"/>
      <point x="657" y="332"/>
      <point x="657" y="344" type="curve" smooth="yes"/>
      <point x="658" y="358"/>
      <point x="665" y="372"/>
      <point x="688" y="378" type="curve" smooth="yes"/>
      <point x="698" y="382"/>
      <point x="711" y="383"/>
      <point x="711" y="388" type="curve" smooth="yes"/>
      <point x="711" y="392"/>
      <point x="689" y="392"/>
      <point x="678" y="392" type="curve" smooth="yes"/>
      <point x="642" y="392"/>
      <point x="599" y="390"/>
      <point x="538" y="390" type="curve" smooth="yes"/>
      <point x="477" y="390"/>
      <point x="444" y="392"/>
      <point x="415" y="392" type="curve" smooth="yes"/>
      <point x="401" y="392"/>
      <point x="382" y="392"/>
      <point x="382" y="388" type="curve" smooth="yes"/>
      <point x="382" y="383"/>
      <point x="395" y="380"/>
      <point x="405" y="378" type="curve" smooth="yes"/>
      <point x="443" y="373"/>
      <point x="455" y="352"/>
      <point x="455" y="323" type="curve" smooth="yes"/>
      <point x="455" y="307"/>
      <point x="450" y="290"/>
      <point x="442" y="265" type="curve" smooth="yes"/>
      <point x="385" y="81" type="line" smooth="yes"/>
      <point x="383" y="78"/>
      <point x="382" y="77"/>
      <point x="380" y="77" type="curve" smooth="yes"/>
      <point x="378" y="77"/>
      <point x="376" y="79"/>
      <point x="375" y="81" type="curve" smooth="yes"/>
      <point x="289" y="318" type="line" smooth="yes"/>
      <point x="285" y="327"/>
      <point x="283" y="337"/>
      <point x="283" y="346" type="curve" smooth="yes"/>
      <point x="283" y="363"/>
      <point x="287" y="376"/>
      <point x="308" y="380" type="curve"/>
      <point x="319" y="382"/>
      <point x="331" y="383"/>
      <point x="331" y="388" type="curve" smooth="yes"/>
      <point x="331" y="392"/>
      <point x="306" y="392"/>
      <point x="297" y="392" type="curve" smooth="yes"/>
      <point x="251" y="392"/>
      <point x="206" y="390"/>
      <point x="160" y="390" type="curve" smooth="yes"/>
      <point x="116" y="390"/>
      <point x="80" y="392"/>
      <point x="38" y="392" type="curve" smooth="yes"/>
      <point x="27" y="392"/>
      <point x="5" y="392"/>
      <point x="5" y="388" type="curve" smooth="yes"/>
      <point x="5" y="383"/>
      <point x="17" y="382"/>
      <point x="28" y="380" type="curve"/>
      <point x="47" y="376"/>
      <point x="63" y="356"/>
      <point x="75" y="332" type="curve" smooth="yes"/>
      <point x="217" y="-16" type="line"/>
      <point x="227" y="-20"/>
      <point x="259" y="-23"/>
    </contour>
  </outline>
</glyph>
<glyph name="y" format="1">
  <advance width="568"/>
  <unicode hex="0079"/>
  <outline>
    <contour>
      <point x="183" y="-213" type="curve" smooth="yes"/>
      <point x="230" y="-213"/>
      <point x="270" y="-194"/>
      <point x="288" y="-157" type="curve"/>
      <point x="491" y="323" type="line"/>
      <point x="510" y="367"/>
      <point x="533" y="379"/>
      <point x="551" y="382" type="curve"/>
      <point x="570" y="386"/>
      <point x="573" y="388"/>
      <point x="573" y="390" type="curve" smooth="yes"/>
      <point x="573" y="393"/>
      <point x="566" y="393"/>
      <point x="553" y="393" type="curve" smooth="yes"/>
      <point x="537" y="393"/>
      <point x="527" y="391"/>
      <point x="494" y="391" type="curve" smooth="yes"/>
      <point x="461" y="391"/>
      <point x="447" y="393"/>
      <point x="435" y="393" type="curve" smooth="yes"/>
      <point x="424" y="393"/>
      <point x="415" y="395"/>
      <point x="415" y="391" type="curve" smooth="yes"/>
      <point x="415" y="390"/>
      <point x="410" y="394"/>
      <point x="434" y="390" type="curve" smooth="yes"/>
      <point x="466" y="388"/>
      <point x="478" y="375"/>
      <point x="478" y="356" type="curve" smooth="yes"/>
      <point x="478" y="343"/>
      <point x="476" y="330"/>
      <point x="471" y="315" type="curve"/>
      <point x="378" y="81" type="line" smooth="yes"/>
      <point x="377" y="80"/>
      <point x="377" y="81"/>
      <point x="377" y="81" type="curve" smooth="yes"/>
      <point x="377" y="81"/>
      <point x="378" y="80"/>
      <point x="377" y="82" type="curve" smooth="yes"/>
      <point x="280" y="322" type="line" smooth="yes"/>
      <point x="276" y="331"/>
      <point x="278" y="335"/>
      <point x="278" y="344" type="curve" smooth="yes"/>
      <point x="278" y="360"/>
      <point x="285" y="384"/>
      <point x="304" y="388" type="curve" smooth="yes"/>
      <point x="317" y="390"/>
      <point x="322" y="387"/>
      <point x="322" y="390" type="curve" smooth="yes"/>
      <point x="322" y="394"/>
      <point x="300" y="393"/>
      <point x="289" y="393" type="curve" smooth="yes"/>
      <point x="224" y="393"/>
      <point x="222" y="391"/>
      <point x="162" y="391" type="curve" smooth="yes"/>
      <point x="103" y="391"/>
      <point x="104" y="393"/>
      <point x="39" y="393" type="curve" smooth="yes"/>
      <point x="27" y="393"/>
      <point x="5" y="393"/>
      <point x="5" y="390" type="curve" smooth="yes"/>
      <point x="5" y="386"/>
      <point x="8" y="384"/>
      <point x="19" y="382" type="curve"/>
      <point x="37" y="377"/>
      <point x="59" y="365"/>
      <point x="70" y="339" type="curve" smooth="yes"/>
      <point x="282" y="-77" type="line" smooth="yes"/>
      <point x="286" y="-86"/>
      <point x="289" y="-94"/>
      <point x="289" y="-105" type="curve" smooth="yes"/>
      <point x="290" y="-113"/>
      <point x="287" y="-121"/>
      <point x="283" y="-127" type="curve"/>
      <point x="281" y="-122"/>
      <point x="284" y="-106"/>
      <point x="265" y="-136" type="curve" smooth="yes"/>
      <point x="259" y="-144"/>
      <point x="250" y="-148"/>
      <point x="241" y="-148" type="curve" smooth="yes"/>
      <point x="226" y="-148"/>
      <point x="207" y="-103"/>
      <point x="161" y="-103" type="curve" smooth="yes"/>
      <point x="123" y="-103"/>
      <point x="101" y="-130"/>
      <point x="101" y="-161" type="curve" smooth="yes"/>
      <point x="101" y="-199"/>
      <point x="137" y="-213"/>
    </contour>
  </outline>
</glyph>
<glyph name="braceleft" format="1">
  <advance width="436"/>
  <unicode hex="007B"/>
  <outline>
    <contour>
      <point x="387" y="-160" type="curve" smooth="yes"/>
      <point x="401" y="-160"/>
      <point x="415" y="-156"/>
      <point x="415" y="-149" type="curve" smooth="yes"/>
      <point x="415" y="-139"/>
      <point x="395" y="-137"/>
      <point x="381" y="-135" type="curve" smooth="yes"/>
      <point x="321" y="-125"/>
      <point x="288" y="-125"/>
      <point x="288" y="-26" type="curve" smooth="yes"/>
      <point x="288" y="42"/>
      <point x="301" y="89"/>
      <point x="301" y="147" type="curve" smooth="yes"/>
      <point x="301" y="213"/>
      <point x="228" y="270"/>
      <point x="177" y="279" type="curve"/>
      <point x="174" y="280"/>
      <point x="171" y="281"/>
      <point x="175" y="283" type="curve"/>
      <point x="223" y="291"/>
      <point x="301" y="348"/>
      <point x="301" y="414" type="curve" smooth="yes"/>
      <point x="301" y="470"/>
      <point x="288" y="515"/>
      <point x="288" y="581" type="curve" smooth="yes"/>
      <point x="288" y="680"/>
      <point x="323" y="681"/>
      <point x="383" y="690" type="curve" smooth="yes"/>
      <point x="396" y="692"/>
      <point x="416" y="693"/>
      <point x="416" y="703" type="curve" smooth="yes"/>
      <point x="416" y="711"/>
      <point x="403" y="715"/>
      <point x="383" y="714" type="curve" smooth="yes"/>
      <point x="270" y="711"/>
      <point x="143" y="676"/>
      <point x="143" y="582" type="curve" smooth="yes"/>
      <point x="143" y="514"/>
      <point x="156" y="470"/>
      <point x="156" y="410" type="curve" smooth="yes"/>
      <point x="156" y="338"/>
      <point x="144" y="309"/>
      <point x="79" y="300" type="curve" smooth="yes"/>
      <point x="57" y="296"/>
      <point x="50" y="287"/>
      <point x="50" y="283" type="curve" smooth="yes"/>
      <point x="50" y="275"/>
      <point x="63" y="270"/>
      <point x="76" y="266" type="curve" smooth="yes"/>
      <point x="137" y="252"/>
      <point x="156" y="243"/>
      <point x="156" y="157" type="curve" smooth="yes"/>
      <point x="156" y="95"/>
      <point x="143" y="49"/>
      <point x="143" y="-27" type="curve" smooth="yes"/>
      <point x="143" y="-121"/>
      <point x="268" y="-153"/>
    </contour>
  </outline>
</glyph>
